
<!-- Generator: visioncortex VTracer 0.6.4 -->
<svg version="1.1" xmlns="http://www.w3.org/2000/svg" viewBox="0 0 516 503" preserveAspectRatio="xMidYMid meet">
<path d="M0 0 C1.493 0.866 1.493 0.866 3.016 1.749 C4.142 2.398 5.268 3.046 6.428 3.715 C7.636 4.418 8.843 5.12 10.051 5.823 C11.306 6.548 12.561 7.272 13.816 7.996 C15.73 9.099 17.644 10.202 19.557 11.308 C25.407 14.687 31.288 18.009 37.176 21.323 C39.922 22.876 42.667 24.43 45.412 25.985 C47.249 27.022 49.088 28.056 50.928 29.087 C53.62 30.595 56.305 32.114 58.989 33.635 C59.798 34.085 60.608 34.535 61.442 34.998 C62.177 35.417 62.911 35.836 63.668 36.268 C64.313 36.631 64.957 36.993 65.621 37.366 C67.114 38.51 67.114 38.51 68.114 41.51 C68.202 43.305 68.231 45.103 68.227 46.9 C68.227 48.001 68.227 49.102 68.227 50.236 C68.222 51.424 68.216 52.611 68.211 53.835 C68.209 55.66 68.209 55.66 68.207 57.521 C68.201 61.413 68.189 65.306 68.176 69.198 C68.171 71.834 68.166 74.47 68.162 77.106 C68.151 83.574 68.135 90.042 68.114 96.51 C72.028 95.086 72.028 95.086 75.114 92.51 C76.063 88.614 75.756 84.791 75.559 80.807 C75.521 78.442 75.484 76.076 75.449 73.71 C75.354 69.984 75.239 66.262 75.09 62.538 C74.361 42.334 74.361 42.334 77.253 37.674 C80.606 34.384 84.762 33.019 89.114 31.51 C90.99 30.483 92.846 29.417 94.676 28.307 C96.487 27.289 98.3 26.274 100.114 25.26 C102.115 24.136 104.116 23.011 106.117 21.885 C107.115 21.325 108.113 20.764 109.141 20.186 C112.904 18.065 116.656 15.923 120.404 13.776 C122.154 12.774 123.906 11.775 125.659 10.778 C129.713 8.473 133.745 6.141 137.735 3.725 C138.817 3.083 138.817 3.083 139.92 2.427 C141.249 1.638 142.57 0.833 143.879 0.011 C146.845 -1.732 148.969 -2.486 152.422 -2.568 C157.522 -1.078 161.744 1.379 166.301 4.073 C167.791 4.934 167.791 4.934 169.311 5.813 C171.458 7.055 173.602 8.3 175.744 9.55 C180.925 12.564 186.133 15.53 191.34 18.498 C193.112 19.509 194.882 20.523 196.651 21.537 C202.385 24.822 208.13 28.088 213.899 31.311 C214.959 31.905 216.019 32.499 217.112 33.11 C219.104 34.224 221.099 35.333 223.096 36.438 C224.421 37.18 224.421 37.18 225.774 37.936 C226.543 38.363 227.313 38.79 228.106 39.23 C231.666 41.501 231.666 41.501 233.114 43.51 C233.425 46.391 233.554 49.058 233.549 51.942 C233.559 52.802 233.569 53.663 233.58 54.549 C233.608 57.398 233.614 60.247 233.617 63.096 C233.627 65.076 233.637 67.055 233.648 69.034 C233.666 73.185 233.671 77.336 233.669 81.487 C233.669 86.806 233.71 92.124 233.762 97.443 C233.795 101.531 233.801 105.62 233.8 109.709 C233.803 111.67 233.816 113.63 233.84 115.591 C233.869 118.335 233.86 121.077 233.842 123.821 C233.868 125.035 233.868 125.035 233.893 126.274 C233.803 131.661 233.803 131.661 231.826 134.096 C228.713 136.744 225.167 138.797 221.602 140.772 C220.597 141.334 219.592 141.895 218.557 142.473 C217.524 143.043 216.491 143.612 215.426 144.198 C213.359 145.347 211.293 146.497 209.227 147.647 C208.317 148.15 207.407 148.652 206.47 149.169 C204.641 150.21 202.864 151.343 201.114 152.51 C206.433 154.686 211.808 156.726 217.397 154.671 C221.991 152.325 226.254 149.491 230.435 146.476 C232.114 145.51 232.114 145.51 235.114 145.51 C235.114 144.85 235.114 144.19 235.114 143.51 C241.548 143.895 245.619 146.27 250.989 149.698 C252.757 150.794 254.528 151.886 256.301 152.975 C257.238 153.551 258.175 154.127 259.141 154.721 C264.353 157.859 269.671 160.806 274.989 163.76 C276.058 164.356 277.128 164.951 278.229 165.564 C280.28 166.705 282.33 167.846 284.381 168.986 C288.93 171.523 293.45 174.108 297.965 176.706 C300.266 178.025 302.573 179.332 304.887 180.628 C305.52 180.984 306.154 181.341 306.806 181.708 C308.554 182.692 310.304 183.672 312.055 184.651 C319.424 189.131 319.424 189.131 321.114 192.51 C321.217 195.291 321.26 198.047 321.259 200.828 C321.264 202.119 321.264 202.119 321.269 203.435 C321.278 206.29 321.28 209.144 321.281 211.999 C321.285 213.979 321.288 215.96 321.292 217.94 C321.298 222.098 321.299 226.255 321.299 230.412 C321.299 235.738 321.312 241.065 321.33 246.391 C321.341 250.484 321.343 254.577 321.342 258.67 C321.343 260.633 321.348 262.597 321.356 264.561 C321.365 267.309 321.362 270.057 321.356 272.805 C321.362 273.616 321.368 274.427 321.373 275.263 C321.35 279.441 321.092 282.79 319.114 286.51 C317.404 288.059 317.404 288.059 315.297 289.374 C314.49 289.879 313.683 290.383 312.851 290.904 C307.682 293.938 302.44 296.83 297.176 299.698 C288.293 304.571 279.533 309.585 270.925 314.932 C266.309 317.797 261.648 320.503 256.832 323.022 C254.69 324.195 252.645 325.416 250.582 326.718 C249.966 327.097 249.349 327.476 248.714 327.867 C247.513 328.609 246.323 329.369 245.146 330.148 C241.773 332.202 240.316 332.547 236.375 331.831 C233.39 330.622 230.79 329.295 228.114 327.51 C226.134 330.48 224.154 333.45 222.114 336.51 C223.179 337.143 223.179 337.143 224.266 337.788 C225.185 338.336 226.104 338.884 227.051 339.448 C227.968 339.993 228.884 340.539 229.828 341.1 C232.114 342.51 232.114 342.51 233.114 343.51 C233.235 346.375 233.292 349.216 233.306 352.082 C233.315 352.981 233.323 353.88 233.331 354.807 C233.356 357.796 233.373 360.786 233.387 363.776 C233.392 364.795 233.398 365.814 233.403 366.864 C233.43 372.257 233.449 377.651 233.464 383.045 C233.48 388.622 233.525 394.198 233.576 399.775 C233.61 404.057 233.621 408.339 233.627 412.622 C233.634 414.678 233.649 416.734 233.673 418.789 C233.704 421.667 233.704 424.544 233.697 427.422 C233.713 428.272 233.73 429.122 233.747 429.998 C233.701 434.345 233.536 435.985 230.715 439.488 C228.405 441.284 226.245 442.781 223.656 444.132 C222.804 444.585 221.952 445.037 221.073 445.504 C220.159 445.981 219.244 446.457 218.301 446.948 C210.211 451.254 202.252 455.721 194.364 460.385 C185.653 465.497 176.896 470.512 168.051 475.385 C166.963 475.999 165.874 476.612 164.753 477.244 C154.87 482.63 154.87 482.63 149.114 481.51 C146.471 480.319 144.188 479.134 141.739 477.635 C141.049 477.231 140.359 476.826 139.648 476.408 C138.192 475.552 136.741 474.689 135.293 473.819 C133.19 472.556 131.078 471.312 128.961 470.073 C126.145 468.424 123.333 466.769 120.524 465.108 C115.943 462.405 111.343 459.736 106.739 457.073 C105.57 456.397 105.57 456.397 104.378 455.707 C100.176 453.276 95.97 450.854 91.758 448.44 C90.886 447.939 90.015 447.438 89.117 446.922 C87.439 445.958 85.76 444.997 84.079 444.038 C83.326 443.605 82.573 443.172 81.797 442.725 C81.133 442.345 80.468 441.965 79.783 441.573 C77.138 439.89 76.208 438.917 75.489 435.823 C75.096 432.356 75.044 428.996 75.114 425.51 C72.804 425.51 70.494 425.51 68.114 425.51 C68.23 426.44 68.346 427.369 68.465 428.327 C68.6 430.181 68.6 430.181 68.739 432.073 C68.855 433.291 68.971 434.509 69.09 435.764 C67.768 440.835 65.422 442.065 61.1 444.789 C55.971 447.745 50.796 450.579 45.551 453.323 C38.069 457.291 30.628 461.279 23.364 465.635 C16.745 469.576 10.083 473.432 3.364 477.198 C2.422 477.74 1.48 478.282 0.509 478.841 C-0.824 479.58 -0.824 479.58 -2.183 480.335 C-3.364 481.001 -3.364 481.001 -4.569 481.681 C-7.498 482.729 -8.939 482.446 -11.886 481.51 C-14.296 480.362 -14.296 480.362 -16.808 478.921 C-17.743 478.388 -18.678 477.856 -19.641 477.308 C-20.63 476.735 -21.618 476.163 -22.636 475.573 C-24.169 474.696 -24.169 474.696 -25.733 473.801 C-32.534 469.9 -39.311 465.956 -46.042 461.935 C-50.607 459.217 -55.251 456.666 -59.92 454.132 C-65.134 451.282 -70.296 448.345 -75.449 445.385 C-76.527 444.778 -77.606 444.171 -78.717 443.546 C-80.257 442.658 -80.257 442.658 -81.828 441.753 C-82.753 441.225 -83.678 440.698 -84.631 440.155 C-87.032 438.404 -87.725 437.181 -88.886 434.51 C-89.546 434.18 -90.206 433.85 -90.886 433.51 C-90.391 388.465 -90.391 388.465 -89.886 342.51 C-86.916 340.86 -83.946 339.21 -80.886 337.51 C-81.468 332.202 -81.468 332.202 -83.886 327.51 C-86.416 327.827 -88.447 328.223 -90.598 329.63 C-92.705 331.007 -94.439 331.894 -96.886 332.51 C-100.453 331.589 -103.268 329.648 -106.324 327.635 C-108.186 326.49 -110.049 325.347 -111.914 324.206 C-112.887 323.598 -113.86 322.99 -114.863 322.363 C-119.946 319.249 -125.17 316.394 -130.386 313.51 C-132.497 312.332 -134.606 311.153 -136.715 309.971 C-138.259 309.107 -138.259 309.107 -139.834 308.224 C-174.808 288.589 -174.808 288.589 -177.886 285.51 C-178.271 281.672 -178.32 277.803 -178.449 273.948 C-178.512 272.11 -178.512 272.11 -178.575 270.234 C-179.105 252.663 -179.063 235.087 -178.886 217.51 C-178.88 216.807 -178.874 216.103 -178.868 215.378 C-178.828 211.171 -178.747 206.967 -178.636 202.76 C-178.622 201.756 -178.608 200.752 -178.594 199.717 C-178.562 198.808 -178.529 197.9 -178.496 196.964 C-178.475 196.192 -178.454 195.42 -178.432 194.625 C-177.424 190.719 -174.58 188.951 -171.296 186.866 C-170.333 186.339 -169.371 185.812 -168.379 185.268 C-167.309 184.677 -166.239 184.085 -165.136 183.475 C-164.023 182.868 -162.909 182.261 -161.761 181.635 C-159.571 180.431 -157.38 179.226 -155.191 178.018 C-154.121 177.428 -153.051 176.838 -151.948 176.23 C-149.189 174.681 -146.474 173.082 -143.769 171.44 C-138.569 168.285 -133.241 165.394 -127.886 162.51 C-126.029 161.5 -124.172 160.488 -122.316 159.475 C-119.531 157.957 -116.746 156.44 -113.961 154.923 C-113.047 154.424 -112.133 153.926 -111.191 153.413 C-110.301 152.932 -109.412 152.451 -108.495 151.955 C-106.771 151 -105.065 150.013 -103.38 148.991 C-102.601 148.525 -101.822 148.058 -101.019 147.577 C-100.34 147.155 -99.661 146.733 -98.961 146.298 C-96.205 145.252 -94.68 145.659 -91.886 146.51 C-89.914 147.434 -89.914 147.434 -88.039 148.542 C-87.007 149.139 -87.007 149.139 -85.955 149.749 C-85.252 150.165 -84.548 150.582 -83.824 151.01 C-82.419 151.838 -81.012 152.661 -79.601 153.479 C-78.984 153.845 -78.366 154.21 -77.73 154.587 C-72.955 156.979 -70.174 156.236 -65.136 154.573 C-63.381 154.003 -63.381 154.003 -61.59 153.421 C-60.252 152.97 -60.252 152.97 -58.886 152.51 C-59.492 152.147 -60.098 151.783 -60.722 151.409 C-61.56 150.906 -62.398 150.403 -63.261 149.885 C-64.634 149.064 -64.634 149.064 -66.035 148.225 C-67.836 147.142 -69.634 146.052 -71.426 144.952 C-76.443 141.886 -81.424 139.248 -86.855 136.979 C-89.742 134.892 -89.964 132.925 -90.886 129.51 C-91.185 126.989 -91.393 124.562 -91.504 122.034 C-91.541 121.273 -91.579 120.512 -91.617 119.728 C-92.14 107.548 -92.034 95.346 -92.013 83.158 C-92.011 80.433 -92.016 77.709 -92.02 74.984 C-92.025 71.714 -92.022 68.444 -92.019 65.175 C-92.021 63.961 -92.023 62.748 -92.025 61.497 C-92.021 59.813 -92.021 59.813 -92.016 58.095 C-92.015 57.11 -92.014 56.125 -92.013 55.11 C-91.898 52.743 -91.495 50.786 -90.886 48.51 C-90.886 47.52 -90.886 46.53 -90.886 45.51 C-90.576 43.839 -90.246 42.172 -89.886 40.51 C-89.317 40.392 -88.748 40.274 -88.161 40.152 C-85.697 39.457 -83.735 38.478 -81.492 37.245 C-80.631 36.774 -79.77 36.303 -78.883 35.817 C-77.956 35.304 -77.029 34.79 -76.074 34.26 C-75.101 33.725 -74.129 33.19 -73.126 32.639 C-63.321 27.231 -53.575 21.718 -43.839 16.187 C-38.734 13.288 -33.622 10.4 -28.511 7.51 C-27.579 6.983 -26.646 6.455 -25.686 5.911 C-23.924 4.915 -22.16 3.924 -20.391 2.94 C-18.717 1.984 -17.064 0.989 -15.436 -0.044 C-14.279 -0.76 -14.279 -0.76 -13.097 -1.49 C-12.428 -1.923 -11.758 -2.356 -11.068 -2.802 C-6.965 -4.095 -3.637 -1.877 0 0 Z M96.114 112.51 C96.114 130.66 96.114 148.81 96.114 167.51 C98.094 166.85 100.074 166.19 102.114 165.51 C102.189 159.139 102.242 152.767 102.278 146.394 C102.293 144.225 102.314 142.056 102.34 139.887 C102.376 136.775 102.393 133.662 102.406 130.55 C102.422 129.576 102.437 128.602 102.453 127.598 C102.454 126.697 102.454 125.796 102.454 124.868 C102.464 123.676 102.464 123.676 102.474 122.459 C102.355 121.816 102.236 121.173 102.114 120.51 C101.124 119.85 100.134 119.19 99.114 118.51 C98.749 116.85 98.414 115.183 98.114 113.51 C97.454 113.18 96.794 112.85 96.114 112.51 Z M101.114 117.51 C102.114 119.51 102.114 119.51 102.114 119.51 Z M252.114 149.51 C254.114 150.51 254.114 150.51 254.114 150.51 Z " fill="#300B13" transform="translate(187.886474609375,13.489501953125)"/>
<path d="M0 0 C5.118 4.239 9.94 8.804 14.716 13.421 C11.376 13.421 10.091 12.759 7.173 11.226 C6.272 10.76 5.372 10.294 4.444 9.814 C3.482 9.313 2.52 8.812 1.528 8.296 C-10.71 2.07 -22.722 -2.751 -35.972 -6.329 C-36.707 -6.528 -37.443 -6.727 -38.201 -6.932 C-51.166 -10.254 -63.908 -11.02 -77.222 -11.017 C-78.082 -11.018 -78.943 -11.019 -79.829 -11.02 C-93.508 -10.995 -106.238 -10.007 -119.284 -5.579 C-120.308 -5.242 -120.308 -5.242 -121.353 -4.898 C-131.879 -1.335 -141.58 4.076 -151.284 9.421 C-150.374 9.103 -149.463 8.786 -148.525 8.459 C-145.06 7.255 -141.591 6.068 -138.119 4.886 C-136.633 4.377 -135.149 3.865 -133.666 3.347 C-108.246 -5.518 -80.907 -8.437 -54.284 -3.579 C-53.516 -3.439 -52.748 -3.299 -51.956 -3.155 C-31.624 0.742 -11.746 8.238 5.716 19.421 C4.997 34.276 -4.151 44.782 -14.378 54.851 C-18.814 58.774 -23.598 62.138 -28.476 65.487 C-31.076 67.153 -31.076 67.153 -32.284 68.421 C-14.731 61.46 -2.603 50.99 7.716 35.421 C8.704 34.078 9.698 32.741 10.716 31.421 C8.977 43.735 1.04 55.621 -7.284 64.421 C-7.755 64.931 -8.225 65.441 -8.709 65.966 C-28.922 87.769 -55.179 102.109 -83.597 110.296 C-84.252 110.487 -84.908 110.678 -85.583 110.875 C-97.241 114.006 -109.246 114.776 -121.264 114.737 C-123.284 114.733 -125.303 114.757 -127.323 114.782 C-153.711 114.912 -178.157 104.735 -197.347 86.733 C-202.347 81.532 -208.103 75.399 -209.808 68.214 C-209.149 52.547 -195.836 35.761 -186.284 24.421 C-185.658 23.659 -185.031 22.897 -184.386 22.112 C-179.273 16.092 -173.548 11.212 -167.284 6.421 C-166.245 5.617 -165.206 4.812 -164.136 3.983 C-118.031 -30.846 -46.843 -37.128 0 0 Z " fill="#FD6791" transform="translate(241.2841796875,194.5791015625)"/>
<path d="M0 0 C1.082 0.217 2.163 0.433 3.277 0.656 C30.055 6.695 53.421 21.166 73 40 C73.705 40.63 74.41 41.261 75.137 41.91 C87.515 53.334 101.128 73.699 102.25 90.812 C100.221 101.671 87.843 112.218 79.272 118.208 C52.038 136.254 19.996 140.246 -11.888 134.61 C-42.669 128.189 -70.504 113.936 -93 92 C-93.788 91.286 -94.575 90.572 -95.387 89.836 C-106.405 79.567 -114.047 66.506 -118 52 C-117.67 51.34 -117.34 50.68 -117 50 C-116.634 50.788 -116.268 51.575 -115.891 52.387 C-108.514 67.228 -98.244 76.784 -84 85 C-83.143 85.554 -82.286 86.109 -81.402 86.68 C-78.902 88.054 -76.81 88.599 -74 89 C-74.643 88.634 -75.286 88.268 -75.949 87.891 C-90.576 79.127 -106.869 64.812 -112 48 C-112.151 45.31 -112.088 42.699 -112 40 C-68.92 16.466 -25.709 10.209 22 23 C28.76 25.074 35.392 27.488 42 30 C23.029 19.26 2.302 11.067 -19.801 10.727 C-20.919 10.708 -20.919 10.708 -22.059 10.688 C-54.997 10.241 -87.751 15.795 -115.938 34.062 C-116.948 34.702 -117.959 35.341 -119 36 C-119.66 35.67 -120.32 35.34 -121 35 C-88.797 1.434 -45.323 -9.407 0 0 Z " fill="#FD6791" transform="translate(387,173)"/>
<path d="M0 0 C1.493 0.866 1.493 0.866 3.016 1.749 C4.142 2.398 5.268 3.046 6.428 3.715 C7.636 4.418 8.843 5.12 10.051 5.823 C11.306 6.548 12.561 7.272 13.816 7.996 C15.73 9.099 17.644 10.202 19.557 11.308 C25.407 14.687 31.288 18.009 37.176 21.323 C39.922 22.876 42.667 24.43 45.412 25.985 C47.249 27.022 49.088 28.056 50.928 29.087 C53.62 30.595 56.305 32.114 58.989 33.635 C59.798 34.085 60.608 34.535 61.442 34.998 C62.177 35.417 62.911 35.836 63.668 36.268 C64.313 36.631 64.957 36.993 65.621 37.366 C67.114 38.51 67.114 38.51 68.114 41.51 C68.207 43.3 68.241 45.092 68.243 46.884 C68.246 47.982 68.249 49.079 68.252 50.21 C68.249 51.987 68.249 51.987 68.246 53.8 C68.247 55.014 68.248 56.228 68.249 57.479 C68.25 60.046 68.248 62.613 68.244 65.18 C68.239 69.126 68.244 73.072 68.25 77.018 C68.25 79.508 68.248 81.997 68.246 84.487 C68.248 85.676 68.25 86.864 68.252 88.089 C68.248 89.726 68.248 89.726 68.243 91.396 C68.242 92.362 68.241 93.327 68.241 94.322 C68.114 96.51 68.114 96.51 67.114 97.51 C64.328 97.878 64.328 97.878 61.114 97.51 C58.867 95.456 58.867 95.456 56.676 92.635 C52.578 87.812 48.406 84.288 43.114 80.823 C42.454 80.389 41.795 79.956 41.116 79.509 C37.871 77.258 37.871 77.258 34.114 76.51 C33.711 78.878 33.711 78.878 34.114 81.51 C36.162 83.271 36.162 83.271 38.926 84.635 C45.75 88.632 50.76 93.784 56.114 99.51 C53.172 101.801 50.125 103.725 46.926 105.635 C30.19 116.326 19.986 134.899 14.114 153.51 C8.149 153.039 2.274 152.381 -3.636 151.448 C-19.555 149.323 -35.371 150.069 -51.169 152.794 C-53.782 153.202 -56.242 153.549 -58.886 153.51 C-61.086 151.866 -61.086 151.866 -62.886 149.51 C-65.33 147.861 -67.924 146.484 -70.511 145.073 C-71.221 144.677 -71.93 144.281 -72.66 143.873 C-77.353 141.272 -82.102 138.918 -87.066 136.874 C-89.763 134.854 -90.005 132.733 -90.886 129.51 C-91.185 126.989 -91.393 124.562 -91.504 122.034 C-91.541 121.273 -91.579 120.512 -91.617 119.728 C-92.14 107.548 -92.034 95.346 -92.013 83.158 C-92.011 80.433 -92.016 77.709 -92.02 74.984 C-92.025 71.714 -92.022 68.444 -92.019 65.175 C-92.021 63.961 -92.023 62.748 -92.025 61.497 C-92.022 60.375 -92.019 59.252 -92.016 58.095 C-92.015 57.11 -92.014 56.125 -92.013 55.11 C-91.898 52.743 -91.495 50.786 -90.886 48.51 C-90.886 47.52 -90.886 46.53 -90.886 45.51 C-90.576 43.839 -90.246 42.172 -89.886 40.51 C-89.317 40.392 -88.748 40.274 -88.161 40.152 C-85.697 39.457 -83.735 38.478 -81.492 37.245 C-80.631 36.774 -79.77 36.303 -78.883 35.817 C-77.956 35.304 -77.029 34.79 -76.074 34.26 C-75.101 33.725 -74.129 33.19 -73.126 32.639 C-63.321 27.231 -53.575 21.718 -43.839 16.187 C-38.734 13.288 -33.622 10.4 -28.511 7.51 C-27.579 6.983 -26.646 6.455 -25.686 5.911 C-23.924 4.915 -22.16 3.924 -20.391 2.94 C-18.717 1.984 -17.064 0.989 -15.436 -0.044 C-14.664 -0.521 -13.893 -0.998 -13.097 -1.49 C-12.428 -1.923 -11.758 -2.356 -11.068 -2.802 C-6.965 -4.095 -3.637 -1.877 0 0 Z " fill="#FE6690" transform="translate(187.886474609375,13.489501953125)"/>
<path d="M0 0 C3.52 1.651 6.842 3.585 10.188 5.562 C11.181 6.137 12.174 6.711 13.197 7.303 C15.344 8.544 17.488 9.79 19.63 11.04 C24.811 14.054 30.02 17.019 35.227 19.988 C36.998 20.999 38.768 22.012 40.538 23.026 C46.272 26.311 52.016 29.577 57.785 32.801 C58.845 33.394 59.906 33.988 60.998 34.6 C62.99 35.713 64.985 36.823 66.982 37.928 C67.866 38.422 68.75 38.916 69.66 39.426 C70.43 39.853 71.199 40.28 71.992 40.72 C75.553 42.99 75.553 42.99 77 45 C77.312 47.881 77.441 50.548 77.436 53.431 C77.446 54.292 77.456 55.152 77.466 56.039 C77.495 58.888 77.501 61.737 77.504 64.586 C77.514 66.565 77.524 68.544 77.534 70.523 C77.552 74.674 77.558 78.825 77.556 82.977 C77.556 88.296 77.597 93.614 77.648 98.932 C77.682 103.021 77.688 107.109 77.686 111.198 C77.69 113.159 77.703 115.12 77.726 117.081 C77.755 119.825 77.747 122.566 77.729 125.31 C77.754 126.524 77.754 126.524 77.78 127.763 C77.69 133.151 77.69 133.151 75.712 135.587 C72.602 138.233 69.062 140.272 65.488 142.227 C64.483 142.783 63.479 143.34 62.443 143.914 C61.41 144.479 60.377 145.043 59.312 145.625 C57.244 146.758 55.177 147.896 53.113 149.039 C51.749 149.785 51.749 149.785 50.357 150.545 C47.983 151.86 47.983 151.86 46.449 153.708 C45 155 45 155 43.005 155.065 C41.866 154.853 41.866 154.853 40.703 154.637 C39.839 154.491 38.975 154.346 38.084 154.196 C37.149 154.028 36.214 153.86 35.25 153.688 C15.183 150.563 -3.996 152.003 -24 155 C-24.28 154.068 -24.559 153.136 -24.848 152.176 C-31.963 129.238 -44.651 112.408 -66 101 C-62.338 92.918 -54.42 87.463 -47 83 C-46.34 83 -45.68 83 -45 83 C-45 81.02 -45 79.04 -45 77 C-54.701 81.188 -63.211 86.935 -69.375 95.625 C-70.965 97.602 -70.965 97.602 -73 99 C-77.475 99.369 -81.604 98.846 -86 98 C-84 95 -84 95 -81 94 C-81.016 93.354 -81.033 92.708 -81.05 92.042 C-81.207 85.292 -81.273 78.547 -81.287 71.795 C-81.304 69.279 -81.344 66.763 -81.408 64.248 C-81.9 44.023 -81.9 44.023 -78.838 39.151 C-75.485 35.869 -71.349 34.503 -67 33 C-65.123 31.972 -63.267 30.906 -61.438 29.797 C-59.626 28.779 -57.814 27.763 -56 26.75 C-53.998 25.625 -51.997 24.5 -49.996 23.375 C-48.998 22.814 -48 22.254 -46.972 21.676 C-43.209 19.554 -39.458 17.413 -35.709 15.265 C-33.959 14.263 -32.208 13.264 -30.455 12.268 C-26.4 9.962 -22.369 7.631 -18.379 5.215 C-17.297 4.572 -17.297 4.572 -16.193 3.917 C-14.864 3.127 -13.544 2.323 -12.235 1.501 C-7.707 -1.16 -5.017 -1.465 0 0 Z " fill="#FE6690" transform="translate(344,12)"/>
<path d="M0 0 C0.655 0.364 1.31 0.727 1.984 1.102 C4.98 2.752 7.988 4.379 11 6 C11.949 6.514 12.897 7.029 13.875 7.559 C28.069 14.983 42.935 19.352 59 19.375 C59.92 19.399 60.841 19.424 61.789 19.449 C69.681 19.483 76.25 17.606 82.766 13.078 C85 12 85 12 87.859 12.984 C88.813 13.567 89.767 14.15 90.75 14.75 C91.714 15.322 92.678 15.895 93.672 16.484 C96 18 96 18 97 19 C97.122 21.865 97.179 24.705 97.193 27.571 C97.205 28.92 97.205 28.92 97.218 30.296 C97.243 33.286 97.259 36.276 97.273 39.266 C97.279 40.284 97.284 41.303 97.29 42.353 C97.316 47.747 97.336 53.141 97.35 58.535 C97.367 64.111 97.412 69.688 97.462 75.264 C97.496 79.547 97.508 83.829 97.513 88.112 C97.52 90.167 97.535 92.223 97.559 94.279 C97.591 97.157 97.591 100.033 97.583 102.911 C97.6 103.761 97.616 104.611 97.633 105.487 C97.587 109.835 97.423 111.475 94.601 114.978 C92.292 116.773 90.131 118.271 87.543 119.621 C86.264 120.301 86.264 120.301 84.96 120.994 C84.045 121.47 83.13 121.947 82.188 122.438 C74.098 126.744 66.138 131.21 58.25 135.875 C49.54 140.987 40.783 146.001 31.938 150.875 C30.305 151.795 30.305 151.795 28.64 152.734 C18.756 158.119 18.756 158.119 13 157 C10.358 155.808 8.075 154.623 5.625 153.125 C4.935 152.72 4.245 152.315 3.534 151.898 C2.079 151.041 0.627 150.178 -0.821 149.309 C-2.923 148.046 -5.035 146.801 -7.152 145.562 C-9.969 143.914 -12.781 142.258 -15.59 140.598 C-20.17 137.894 -24.771 135.225 -29.375 132.562 C-30.543 131.886 -30.543 131.886 -31.735 131.196 C-35.937 128.765 -40.144 126.343 -44.355 123.93 C-45.227 123.429 -46.099 122.928 -46.997 122.412 C-48.674 121.448 -50.354 120.486 -52.035 119.528 C-52.788 119.094 -53.541 118.661 -54.316 118.215 C-54.981 117.834 -55.646 117.454 -56.33 117.062 C-58.999 115.365 -59.909 114.374 -60.668 111.262 C-61.619 101.918 -58.755 92.468 -55 84 C-54.723 83.36 -54.447 82.72 -54.162 82.061 C-49.199 70.847 -43.333 63.838 -33.71 56.368 C-15.97 42.182 -4.788 21.922 0 0 Z " fill="#FE658F" transform="translate(324,338)"/>
<path d="M0 0 C0.402 1.454 0.402 1.454 0.812 2.938 C7.934 27.696 21.949 48.853 43.66 63.219 C49.177 67.418 51.782 73.132 54.688 79.25 C55.09 80.058 55.493 80.866 55.908 81.699 C58.549 87.229 59.637 91.879 60 98 C61.32 98.33 62.64 98.66 64 99 C63.01 99 62.02 99 61 99 C61.116 99.929 61.232 100.859 61.352 101.816 C61.442 103.053 61.532 104.289 61.625 105.562 C61.741 106.781 61.857 107.999 61.977 109.254 C60.655 114.324 58.308 115.554 53.986 118.279 C48.858 121.235 43.683 124.069 38.438 126.812 C30.955 130.781 23.514 134.769 16.25 139.125 C9.632 143.066 2.969 146.921 -3.75 150.688 C-4.692 151.23 -5.634 151.772 -6.604 152.331 C-7.493 152.823 -8.381 153.316 -9.297 153.824 C-10.084 154.269 -10.871 154.713 -11.683 155.171 C-14.612 156.219 -16.052 155.936 -19 155 C-21.409 153.852 -21.409 153.852 -23.922 152.41 C-24.857 151.878 -25.792 151.346 -26.755 150.797 C-28.237 149.938 -28.237 149.938 -29.75 149.062 C-30.772 148.478 -31.794 147.893 -32.847 147.291 C-39.648 143.39 -46.425 139.446 -53.155 135.424 C-57.72 132.706 -62.364 130.156 -67.034 127.622 C-72.247 124.771 -77.41 121.835 -82.562 118.875 C-84.18 117.964 -84.18 117.964 -85.83 117.035 C-86.857 116.443 -87.884 115.852 -88.941 115.242 C-89.866 114.715 -90.791 114.187 -91.744 113.644 C-94.146 111.894 -94.839 110.67 -96 108 C-96.66 107.67 -97.32 107.34 -98 107 C-97.505 61.955 -97.505 61.955 -97 16 C-94.03 14.35 -91.06 12.7 -88 11 C-87.67 9.35 -87.34 7.7 -87 6 C-86.319 6.743 -85.639 7.485 -84.938 8.25 C-78.183 14.985 -70.125 17.239 -60.803 17.381 C-39.72 17.341 -21.394 12.743 -3.649 0.951 C-2 0 -2 0 0 0 Z " fill="#FE658F" transform="translate(195,340)"/>
<path d="M0 0 C-0.719 14.855 -9.867 25.361 -20.094 35.43 C-24.53 39.353 -29.314 42.718 -34.191 46.066 C-36.792 47.732 -36.792 47.732 -38 49 C-20.447 42.039 -8.318 31.569 2 16 C2.988 14.658 3.982 13.32 5 12 C3.262 24.314 -4.676 36.2 -13 45 C-13.47 45.51 -13.941 46.02 -14.425 46.545 C-34.638 68.348 -60.895 82.688 -89.312 90.875 C-89.968 91.066 -90.624 91.258 -91.299 91.455 C-102.957 94.585 -114.962 95.355 -126.979 95.316 C-129 95.313 -131.019 95.336 -133.039 95.361 C-159.421 95.491 -184.288 85.327 -203.25 67 C-206.604 63.532 -209.525 60.152 -212 56 C-211.621 53.797 -211.621 53.797 -211 52 C-210.045 52.205 -209.09 52.41 -208.105 52.621 C-206.8 52.894 -205.494 53.166 -204.188 53.438 C-202.923 53.704 -201.658 53.971 -200.355 54.246 C-142.035 65.154 -63.881 44.649 -15.094 12.059 C-12.982 10.442 -10.979 8.776 -9 7 C-8.251 6.345 -7.502 5.69 -6.73 5.016 C-5.322 3.782 -3.921 2.54 -2.531 1.285 C-1 0 -1 0 0 0 Z " fill="#FD3170" transform="translate(247,214)"/>
<path d="M0 0 C0.887 0.825 1.774 1.65 2.688 2.5 C8.015 7.033 13.954 10.531 20 14 C20.67 14.387 21.34 14.774 22.031 15.173 C61.368 37.607 111.621 52.128 157 53 C157.879 53.02 158.759 53.041 159.665 53.062 C176.641 53.407 193.178 52.141 210 50 C201.407 67.186 181.105 81.246 163.125 87.438 C151.046 91.259 139.7 92.58 127.125 92.5 C126.363 92.498 125.6 92.496 124.815 92.494 C84.656 92.267 46.676 75.962 18 48 C17.212 47.286 16.425 46.572 15.613 45.836 C4.595 35.567 -3.047 22.506 -7 8 C-6.67 7.34 -6.34 6.68 -6 6 C-5.451 7.181 -5.451 7.181 -4.891 8.387 C2.486 23.228 12.756 32.784 27 41 C27.882 41.55 28.763 42.101 29.672 42.668 C32.654 44.374 35.683 45.155 39 46 C36.579 43.396 33.914 41.466 31 39.438 C17.433 29.611 5.738 18.088 0 2 C0 1.34 0 0.68 0 0 Z " fill="#FD3170" transform="translate(276,217)"/>
<path d="M0 0 C1.989 0.908 1.989 0.908 3.883 1.996 C4.921 2.587 4.921 2.587 5.98 3.189 C6.688 3.601 7.396 4.013 8.125 4.438 C8.84 4.845 9.556 5.253 10.293 5.674 C13.262 7.375 16.151 9.101 19 11 C18.247 11.34 17.494 11.681 16.719 12.031 C13.791 13.367 10.873 14.719 7.959 16.085 C6.671 16.687 5.38 17.284 4.088 17.876 C-12.229 25.386 -26.164 35.477 -39 48 C-40.052 48.959 -40.052 48.959 -41.125 49.938 C-55.072 62.985 -68.514 83.633 -70.273 103.012 C-69.306 113.589 -59.008 123.806 -51.359 130.419 C-36.047 143.042 -19.028 149.136 0 154 C0.159 154.895 0.317 155.789 0.48 156.711 C1.843 163.774 3.482 169.821 7.012 176.109 C8 178 8 178 8 180 C4.114 183.201 0.133 185.805 -5 186 C-11.606 184.059 -17.366 179.636 -23.057 175.885 C-28.066 172.677 -33.289 169.863 -38.5 167 C-40.611 165.822 -42.72 164.643 -44.828 163.461 C-46.372 162.596 -46.372 162.596 -47.947 161.714 C-82.921 142.079 -82.921 142.079 -86 139 C-86.385 135.161 -86.434 131.292 -86.562 127.438 C-86.604 126.212 -86.646 124.986 -86.689 123.723 C-87.219 106.153 -87.177 88.576 -87 71 C-86.994 70.296 -86.988 69.593 -86.981 68.868 C-86.941 64.661 -86.86 60.456 -86.75 56.25 C-86.736 55.246 -86.722 54.241 -86.708 53.206 C-86.675 52.298 -86.643 51.389 -86.609 50.453 C-86.588 49.681 -86.567 48.909 -86.546 48.114 C-85.537 44.209 -82.694 42.44 -79.41 40.356 C-77.966 39.565 -77.966 39.565 -76.492 38.758 C-75.422 38.166 -74.352 37.574 -73.25 36.965 C-72.136 36.358 -71.023 35.751 -69.875 35.125 C-67.684 33.921 -65.494 32.715 -63.305 31.508 C-61.699 30.623 -61.699 30.623 -60.062 29.72 C-57.303 28.17 -54.587 26.571 -51.883 24.93 C-46.683 21.774 -41.355 18.883 -36 16 C-34.143 14.989 -32.286 13.978 -30.43 12.965 C-27.645 11.447 -24.86 9.929 -22.074 8.412 C-21.16 7.914 -20.246 7.416 -19.305 6.902 C-18.415 6.421 -17.525 5.94 -16.608 5.445 C-14.885 4.49 -13.179 3.502 -11.493 2.481 C-10.325 1.781 -10.325 1.781 -9.133 1.066 C-8.454 0.644 -7.774 0.222 -7.075 -0.213 C-4.319 -1.259 -2.794 -0.848 0 0 Z " fill="#FD6690" transform="translate(96,160)"/>
<path d="M0 0 C6.435 0.384 10.506 2.76 15.875 6.188 C17.644 7.283 19.415 8.376 21.188 9.465 C22.593 10.329 22.593 10.329 24.027 11.21 C29.24 14.348 34.557 17.296 39.875 20.25 C40.945 20.845 42.014 21.441 43.116 22.054 C45.166 23.195 47.216 24.335 49.267 25.476 C53.816 28.013 58.337 30.598 62.852 33.195 C65.153 34.514 67.459 35.821 69.773 37.117 C70.407 37.474 71.04 37.83 71.693 38.198 C73.441 39.181 75.191 40.161 76.941 41.141 C84.31 45.62 84.31 45.62 86 49 C86.104 51.781 86.147 54.536 86.145 57.318 C86.149 58.178 86.152 59.038 86.155 59.925 C86.165 62.779 86.167 65.634 86.168 68.488 C86.171 70.469 86.175 72.449 86.178 74.43 C86.184 78.587 86.186 82.744 86.185 86.901 C86.185 92.228 86.199 97.554 86.216 102.88 C86.227 106.973 86.229 111.066 86.229 115.159 C86.23 117.123 86.234 119.086 86.242 121.05 C86.252 123.798 86.249 126.546 86.243 129.294 C86.249 130.105 86.254 130.916 86.26 131.752 C86.237 135.93 85.979 139.28 84 143 C82.291 144.548 82.291 144.548 80.184 145.863 C79.376 146.368 78.569 146.873 77.738 147.393 C72.568 150.427 67.326 153.32 62.062 156.188 C53.18 161.06 44.42 166.075 35.812 171.422 C31.196 174.286 26.535 176.992 21.719 179.512 C19.577 180.684 17.531 181.905 15.469 183.207 C14.544 183.776 14.544 183.776 13.601 184.357 C12.4 185.099 11.209 185.858 10.032 186.637 C6.686 188.675 5.178 189.029 1.262 188.383 C-2.4 186.83 -4.409 184.983 -7 182 C-6.674 181.285 -6.348 180.569 -6.012 179.832 C-2.729 172.347 -0.589 165.011 1 157 C2.922 156.563 2.922 156.563 4.883 156.117 C31.939 149.784 55.296 137.183 70.531 113.246 C73.861 105.888 71.194 99.235 68.609 92.043 C56.172 59.71 28.11 34.898 -2.962 20.876 C-8.879 18.333 -14.925 16.133 -21 14 C-17.888 10.705 -14.366 8.621 -10.5 6.312 C-9.823 5.897 -9.146 5.481 -8.449 5.053 C-3.366 2 -3.366 2 0 2 C0 1.34 0 0.68 0 0 Z M17 6 C19 7 19 7 19 7 Z " fill="#FD658F" transform="translate(423,157)"/>
<path d="M0 0 C1.169 3.507 0.783 4.44 -0.336 7.875 C-0.812 9.339 -0.812 9.339 -1.298 10.832 C-1.831 12.4 -1.831 12.4 -2.375 14 C-2.74 15.076 -3.105 16.153 -3.481 17.262 C-11.087 39.137 -21.803 57.433 -38 74 C-38.873 74.935 -39.745 75.869 -40.645 76.832 C-47.454 83.961 -54.818 89.585 -63 95 C-63.853 95.576 -64.707 96.152 -65.586 96.746 C-76.033 103.427 -87.922 107.464 -100 110 C-100.735 110.183 -101.47 110.366 -102.227 110.555 C-106.397 111.224 -110.532 111.266 -114.75 111.312 C-116.034 111.356 -116.034 111.356 -117.344 111.4 C-124.753 111.473 -130.557 109.708 -136.418 105.098 C-144.496 95.807 -148.093 86.006 -150 74 C-149.262 74.016 -148.524 74.031 -147.763 74.048 C-104.756 74.838 -65.939 65.5 -32 38 C-31.155 37.323 -31.155 37.323 -30.293 36.633 C-17.306 26.169 -7.816 14.759 0 0 Z " fill="#FD3271" transform="translate(252,241)"/>
<path d="M0 0 C2.365 3.057 4.43 6.238 6.5 9.5 C27.938 41.618 65.346 61.753 102.471 69.423 C117.617 72.332 132.642 72.121 148 72 C145.896 84.064 141.971 95.857 133.066 104.668 C127.054 108.544 121.049 109.53 114 109.438 C113.174 109.43 112.348 109.422 111.497 109.415 C88.071 108.799 65.27 97.236 48 82 C47.147 81.268 46.293 80.536 45.414 79.781 C34.356 70.118 25.971 59.236 18 47 C17.349 46.013 16.698 45.025 16.027 44.008 C8.514 31.925 0 14.562 0 0 Z " fill="#FC3271" transform="translate(270,243)"/>
<path d="M0 0 C7.739 0.076 17.278 3.758 23.438 8.375 C24.039 10.804 24.039 10.804 24.005 13.717 C24.005 14.808 24.004 15.899 24.004 17.024 C23.978 18.202 23.952 19.38 23.926 20.594 C23.919 21.803 23.912 23.013 23.904 24.259 C23.876 28.131 23.814 32.003 23.75 35.875 C23.725 38.486 23.702 41.096 23.682 43.707 C23.632 49.454 23.561 55.2 23.471 60.946 C23.446 62.756 23.438 64.565 23.438 66.375 C21.507 67.882 19.622 69.192 17.562 70.5 C12.039 74.132 7.216 78.102 2.461 82.723 C0.438 84.375 0.438 84.375 -2.562 84.375 C-3.449 83.447 -4.336 82.519 -5.25 81.562 C-17.784 68.528 -35.945 59.812 -52.562 53.375 C-46.352 32.769 -35.788 14.882 -16.562 4.375 C-15.511 3.777 -14.459 3.179 -13.375 2.562 C-8.982 0.708 -4.7 0.495 0 0 Z " fill="#FD6791" transform="translate(261.5625,116.625)"/>
<path d="M0 0 C0 3.18 -0.458 4.219 -1.934 6.941 C-2.335 7.69 -2.737 8.438 -3.15 9.209 C-3.575 9.986 -4 10.762 -4.438 11.562 C-4.858 12.343 -5.279 13.124 -5.713 13.928 C-6.492 15.373 -7.275 16.818 -8.06 18.26 C-8.728 19.496 -9.372 20.744 -10 22 C-5.229 18.421 -2.709 15.314 0 10 C0.495 10.99 0.495 10.99 1 12 C0.323 13.812 0.323 13.812 -0.809 16 C-1.222 16.8 -1.635 17.6 -2.061 18.424 C-2.515 19.274 -2.97 20.124 -3.438 21 C-3.897 21.864 -4.356 22.728 -4.83 23.619 C-8.299 30.003 -12.126 35.598 -17 41 C-17.899 42.11 -17.899 42.11 -18.816 43.242 C-26.954 53.062 -38.114 62.85 -51.156 64.367 C-65.333 64.93 -75.015 58.37 -85.234 49.117 C-95.66 39.329 -105.691 26.868 -110 13 C-109.67 12.34 -109.34 11.68 -109 11 C-108.437 11.797 -108.437 11.797 -107.863 12.609 C-107.352 13.316 -106.84 14.022 -106.312 14.75 C-105.814 15.446 -105.315 16.142 -104.801 16.859 C-102.764 19.281 -100.518 21.095 -98 23 C-98.459 22.299 -98.918 21.598 -99.391 20.875 C-109 6.017 -109 6.017 -109 2 C-105.446 3.303 -102.227 4.951 -98.937 6.818 C-78.586 18.291 -53.513 20.245 -30.809 15.176 C-19.882 11.802 -9.091 7.017 0 0 Z " fill="#FD3271" transform="translate(314,339)"/>
<path d="M0 0 C2.824 0.775 5.64 1.575 8.453 2.39 C25.696 7.141 50.108 8.029 66.871 0.715 C69.974 -0.398 71.12 -0.364 74.203 0.879 C76.839 3.047 79.168 5.468 81.516 7.941 C82.161 8.605 82.806 9.268 83.471 9.951 C85.058 11.585 86.634 13.228 88.203 14.879 C83.939 24.14 70.442 28.683 61.271 32.163 C40.517 39.353 16.718 37.123 -3.223 28.625 C-8.721 25.939 -14.27 23.043 -18.797 18.879 C-18.797 14.879 -18.797 14.879 -16.312 12.223 C-15.234 11.264 -14.145 10.316 -13.047 9.379 C-11.968 8.432 -10.89 7.484 -9.812 6.535 C-9.29 6.088 -8.767 5.641 -8.229 5.18 C-6.617 3.774 -6.617 3.774 -4.781 1.473 C-2.797 -0.121 -2.797 -0.121 0 0 Z " fill="#FC3373" transform="translate(225.796875,315.12109375)"/>
<path d="M0 0 C0.66 0.33 1.32 0.66 2 1 C2.591 2.971 2.591 2.971 3.078 5.566 C3.266 6.519 3.454 7.471 3.648 8.453 C3.846 9.479 4.045 10.505 4.25 11.562 C6.303 21.497 8.88 30.732 13 40 C13.431 40.975 13.431 40.975 13.87 41.969 C17.894 50.893 22.724 58.952 28.495 66.861 C32 71.708 32 71.708 32 75 C11.844 80.802 -11.636 84.427 -31 74 C-30.49 73.252 -30.49 73.252 -29.969 72.488 C-28.292 70.005 -26.643 67.506 -25 65 C-24.374 64.045 -23.747 63.09 -23.102 62.105 C-10.763 42.719 -4.089 22.503 0 0 Z " fill="#FC6993" transform="translate(260,235)"/>
<path d="M0 0 C13.529 6.092 20.875 22.628 25.906 35.723 C26.831 38.493 27.522 41.124 28 44 C27.154 44.315 26.309 44.629 25.438 44.953 C17.749 47.842 17.749 47.842 10.312 51.312 C7 53 7 53 5 53 C5 38.15 5 23.3 5 8 C3.68 7.67 2.36 7.34 1 7 C1.021 6.216 1.041 5.433 1.062 4.625 C1.187 2.019 1.187 2.019 0 0 Z M4 5 C5 7 5 7 5 7 Z " fill="#FC6691" transform="translate(285,126)"/>
<path d="M0 0 C3.239 1.61 5.194 3.937 7.375 6.812 C8.755 11.643 8.52 15.649 6.75 20.25 C4.291 24.115 2.397 26.534 -2 28 C-6.024 28.616 -9.537 28.88 -13.109 26.73 C-18.812 21.888 -18.812 21.888 -19.238 17.609 C-19.396 11.527 -19.257 7.73 -15 3 C-10.479 -1.071 -5.821 -0.91 0 0 Z " fill="#370D16" transform="translate(208,66)"/>
<path d="M0 0 C3.799 1.796 5.52 3.296 7.875 6.75 C9.471 11.361 9.932 15.358 8.309 19.961 C6.746 23.061 5.077 24.946 2.25 26.938 C-1.682 28.223 -4.911 28.735 -9 28 C-13.36 25.779 -16.202 23.595 -18 19 C-18.545 14.417 -18.587 10.422 -16.812 6.125 C-11.724 0.159 -7.74 -1.216 0 0 Z " fill="#370D16" transform="translate(322,66)"/>
<path d="M0 0 C0.95 3.695 0.95 6.305 0 10 C-0.99 9.01 -0.99 9.01 -2 8 C-3.311 8.582 -4.622 9.164 -5.934 9.746 C-6.758 10.112 -7.583 10.478 -8.433 10.855 C-10.047 11.575 -11.658 12.3 -13.266 13.032 C-27.774 19.629 -40.862 23.172 -56.875 23.375 C-57.731 23.389 -58.587 23.403 -59.468 23.418 C-66.044 23.367 -74.144 22.856 -79 18 C-79 17.34 -79 16.68 -79 16 C-78.118 16.103 -78.118 16.103 -77.219 16.208 C-50.455 19.132 -26.399 16.069 -3.649 0.951 C-2 0 -2 0 0 0 Z M-85 12 C-84.01 12 -83.02 12 -82 12 C-82 12.66 -82 13.32 -82 14 C-82.99 13.67 -83.98 13.34 -85 13 C-85 12.67 -85 12.34 -85 12 Z M-80 13 C-80 13.99 -80 14.98 -80 16 C-80.66 15.34 -81.32 14.68 -82 14 C-81.34 13.67 -80.68 13.34 -80 13 Z " fill="#F6628E" transform="translate(195,340)"/>
<path d="M0 0 C0.802 0.496 1.604 0.993 2.43 1.504 C24.441 14.79 47.223 20.41 73 18 C75.018 17.391 77.025 16.738 79 16 C78.938 17.812 78.938 17.812 78 20 C64.154 27.33 46.659 24.336 32 21 C29.989 20.366 27.985 19.711 26 19 C26 18.34 26 17.68 26 17 C24.277 16.89 24.277 16.89 22.52 16.777 C17.562 16.156 13.916 14.114 9.688 11.562 C8.986 11.155 8.284 10.747 7.561 10.326 C4.647 8.624 1.809 6.873 -1 5 C-0.67 3.35 -0.34 1.7 0 0 Z M80 14 C80.66 14.33 81.32 14.66 82 15 C81.01 15 80.02 15 79 15 C79.33 14.67 79.66 14.34 80 14 Z " fill="#F7628E" transform="translate(326,339)"/>
<path d="M0 0 C1.169 3.507 0.783 4.44 -0.336 7.875 C-0.654 8.852 -0.972 9.829 -1.3 10.835 C-1.655 11.879 -2.009 12.924 -2.375 14 C-2.915 15.601 -2.915 15.601 -3.466 17.235 C-5.891 24.239 -8.594 31.043 -11.75 37.75 C-12.114 38.529 -12.478 39.307 -12.853 40.109 C-14.779 44.05 -16.61 47.099 -20 50 C-18.819 46.85 -17.455 43.831 -15.977 40.812 C-11.507 31.682 -7.537 22.881 -5 13 C-5.99 13.99 -6.98 14.98 -8 16 C-6.573 12.21 -4.838 8.729 -2.875 5.188 C-2.336 4.212 -1.797 3.236 -1.242 2.23 C-0.832 1.494 -0.422 0.758 0 0 Z M-10 16 C-9.34 16.33 -8.68 16.66 -8 17 C-8.99 17.99 -9.98 18.98 -11 20 C-10.67 18.68 -10.34 17.36 -10 16 Z M-13 20 C-12.34 20.33 -11.68 20.66 -11 21 C-12.65 22.32 -14.3 23.64 -16 25 C-14.125 21.125 -14.125 21.125 -13 20 Z M-17 25 C-17 28 -17 28 -18.5 29.688 C-18.995 30.121 -19.49 30.554 -20 31 C-20.66 30.67 -21.32 30.34 -22 30 C-20.35 28.35 -18.7 26.7 -17 25 Z M-24 31 C-23.34 31.33 -22.68 31.66 -22 32 C-24.97 34.64 -27.94 37.28 -31 40 C-31 37 -31 37 -29.469 35.395 C-28.494 34.611 -28.494 34.611 -27.5 33.812 C-26.85 33.283 -26.201 32.753 -25.531 32.207 C-25.026 31.809 -24.521 31.41 -24 31 Z M-34 40 C-33.34 40.33 -32.68 40.66 -32 41 C-34.225 42.632 -36.454 44.255 -38.688 45.875 C-39.313 46.335 -39.939 46.795 -40.584 47.27 C-43.947 49.699 -47.021 51.676 -51 53 C-51 52.34 -51 51.68 -51 51 C-48.757 49.412 -46.523 47.94 -44.188 46.5 C-42.91 45.698 -41.633 44.896 -40.355 44.094 C-39.248 43.403 -38.141 42.712 -37 42 C-36.01 41.34 -35.02 40.68 -34 40 Z M-21 50 C-20.67 50.66 -20.34 51.32 -20 52 C-20.33 52.66 -20.66 53.32 -21 54 C-21.66 53.67 -22.32 53.34 -23 53 C-22.34 52.01 -21.68 51.02 -21 50 Z M-24 54 C-23.67 54.66 -23.34 55.32 -23 56 C-23.33 56.66 -23.66 57.32 -24 58 C-24.66 57.67 -25.32 57.34 -26 57 C-25.34 56.01 -24.68 55.02 -24 54 Z M-27 58 C-26.67 58.99 -26.34 59.98 -26 61 C-32.531 68.141 -39.063 75.247 -46 82 C-46.66 81.67 -47.32 81.34 -48 81 C-47.541 80.552 -47.083 80.104 -46.611 79.642 C-44.506 77.58 -42.409 75.509 -40.312 73.438 C-39.591 72.733 -38.87 72.029 -38.127 71.303 C-33.904 67.118 -30.298 62.95 -27 58 Z M-49 82 C-49 82.99 -49 83.98 -49 85 C-49.66 84.67 -50.32 84.34 -51 84 C-50.34 83.34 -49.68 82.68 -49 82 Z M-53 85 C-52.34 85.33 -51.68 85.66 -51 86 C-63.684 96.488 -82.697 109.824 -100 109 C-96.568 107.11 -93.056 106.067 -89.312 104.938 C-75.988 100.669 -63.937 93.669 -53 85 Z " fill="#EE498D" transform="translate(252,241)"/>
<path d="M0 0 C1.205 3.616 0.749 4.143 -0.871 7.449 C-1.28 8.297 -1.69 9.144 -2.111 10.018 C-2.549 10.899 -2.987 11.78 -3.438 12.688 C-3.871 13.58 -4.305 14.473 -4.752 15.393 C-5.826 17.6 -6.909 19.802 -8 22 C-8.66 22 -9.32 22 -10 22 C-9.67 20.68 -9.34 19.36 -9 18 C-11.64 20.31 -14.28 22.62 -17 25 C-17 24.01 -17 23.02 -17 22 C-15.561 20.787 -14.115 19.58 -12.635 18.418 C-9.985 16.12 -8.172 13.348 -6.25 10.438 C-5.672 9.592 -5.672 9.592 -5.082 8.729 C-3.175 5.907 -1.423 3.097 0 0 Z M-12 24 C-12 28.06 -13.518 29.007 -16.25 31.938 C-17.433 33.219 -17.433 33.219 -18.641 34.527 C-20.73 36.718 -22.847 38.872 -25 41 C-25.66 40.67 -26.32 40.34 -27 40 C-26.252 39.264 -25.505 38.528 -24.734 37.77 C-23.739 36.784 -22.745 35.798 -21.75 34.812 C-21.259 34.33 -20.768 33.847 -20.262 33.35 C-17.278 30.386 -14.567 27.343 -12 24 Z M-20 25 C-19.34 25.33 -18.68 25.66 -18 26 C-21.3 28.31 -24.6 30.62 -28 33 C-28.66 32.67 -29.32 32.34 -30 32 C-26.7 29.69 -23.4 27.38 -20 25 Z M-29 42 C-29 42.99 -29 43.98 -29 45 C-31.5 47.188 -31.5 47.188 -34 49 C-34.66 48.67 -35.32 48.34 -36 48 C-33.69 46.02 -31.38 44.04 -29 42 Z M-38 49 C-36 50 -36 50 -36 50 Z M-39 50 C-39 50.99 -39 51.98 -39 53 C-39.99 52.67 -40.98 52.34 -42 52 C-41.01 51.34 -40.02 50.68 -39 50 Z M-43 53 C-42.505 53.99 -42.505 53.99 -42 55 C-69.027 71.776 -69.027 71.776 -83 75 C-83 74.34 -83 73.68 -83 73 C-82.224 72.72 -81.448 72.441 -80.648 72.152 C-67.236 67.175 -55.025 60.691 -43 53 Z " fill="#EE498C" transform="translate(251,226)"/>
<path d="M0 0 C0.33 0 0.66 0 1 0 C1.33 29.7 1.66 59.4 2 90 C1.34 89.67 0.68 89.34 0 89 C-2.232 78.908 -2.288 68.524 -2.23 58.238 C-2.229 56.79 -2.229 55.341 -2.229 53.892 C-2.228 50.891 -2.219 47.891 -2.206 44.89 C-2.189 41.049 -2.185 37.208 -2.186 33.367 C-2.185 30.391 -2.18 27.415 -2.173 24.439 C-2.17 23.022 -2.168 21.605 -2.167 20.187 C-2.165 18.216 -2.155 16.246 -2.145 14.275 C-2.141 13.156 -2.138 12.038 -2.134 10.886 C-2.018 8.394 -1.652 6.385 -1 4 C-1 3.01 -1 2.02 -1 1 C-0.67 0.67 -0.34 0.34 0 0 Z " fill="#F64874" transform="translate(98,58)"/>
<path d="M0 0 C2.965 1.482 3.427 3.716 4.812 6.688 C7.11 11.423 9.396 15.184 13 19 C12.67 19.66 12.34 20.32 12 21 C11.01 20.01 10.02 19.02 9 18 C9.471 18.736 9.941 19.472 10.426 20.23 C11.048 21.206 11.671 22.182 12.312 23.188 C12.927 24.15 13.542 25.113 14.176 26.105 C15.821 28.716 17.424 31.347 19 34 C14.908 32.636 13.479 29.888 11.188 26.438 C10.747 25.777 10.306 25.117 9.852 24.437 C5.583 17.781 0 8.125 0 0 Z M14 22 C17.161 23.37 17.993 23.989 20 27 C16.839 25.63 16.007 25.011 14 22 Z M20 27 C23.579 28.652 26.748 30.783 30 33 C29.01 33.495 29.01 33.495 28 34 C26.664 33.025 25.331 32.045 24 31.062 C23.257 30.517 22.515 29.972 21.75 29.41 C21.173 28.945 20.595 28.479 20 28 C20 27.67 20 27.34 20 27 Z M19 34 C21.31 35.98 23.62 37.96 26 40 C25.67 40.66 25.34 41.32 25 42 C23.994 41.048 22.995 40.088 22 39.125 C21.443 38.591 20.886 38.058 20.312 37.508 C19 36 19 36 19 34 Z M31 35 C33.438 35.375 33.438 35.375 36 36 C36.33 36.66 36.66 37.32 37 38 C35.02 37.34 33.04 36.68 31 36 C31 35.67 31 35.34 31 35 Z M37 38 C39 39 39 39 39 39 Z M39 39 C41 40 41 40 41 40 Z M27 43 C30.795 44.491 32.61 46.757 35 50 C31.205 48.509 29.39 46.243 27 43 Z M35 50 C38.987 51.832 42.581 54.239 46.25 56.625 C46.9 57.045 47.549 57.465 48.219 57.898 C49.814 58.93 51.407 59.965 53 61 C52.01 61.33 51.02 61.66 50 62 C47.495 60.477 45.214 58.934 42.875 57.188 C42.229 56.723 41.583 56.258 40.918 55.779 C36.147 52.293 36.147 52.293 35 50 Z M53 62 C56.465 63.485 56.465 63.485 60 65 C57 66 57 66 54.812 65.062 C54.214 64.712 53.616 64.361 53 64 C53 63.34 53 62.68 53 62 Z " fill="#F64C91" transform="translate(269,223)"/>
<path d="M0 0 C0.66 0 1.32 0 2 0 C1.67 0.66 1.34 1.32 1 2 C0.67 1.34 0.34 0.68 0 0 Z M2 2 C6.985 2.899 11.213 3.992 15.75 6.25 C24.366 10.391 33.8 12.526 43 15 C43.495 18.96 43.495 18.96 44 23 C43.01 23 42.02 23 41 23 C40.505 21.515 40.505 21.515 40 20 C38.078 19.108 38.078 19.108 35.688 18.562 C31.534 17.432 27.455 16.187 23.375 14.812 C21.84 14.296 21.84 14.296 20.273 13.77 C19.148 13.389 19.148 13.389 18 13 C18 12.34 18 11.68 18 11 C17.295 10.734 16.59 10.469 15.863 10.195 C12.844 8.935 10.048 7.46 7.188 5.875 C6.212 5.336 5.236 4.797 4.23 4.242 C3.494 3.832 2.758 3.422 2 3 C2 2.67 2 2.34 2 2 Z M41 18 C42 20 42 20 42 20 Z " fill="#F5648F" transform="translate(53,299)"/>
<path d="M0 0 C0.66 0.33 1.32 0.66 2 1 C1.34 2.65 0.68 4.3 0 6 C-0.33 6 -0.66 6 -1 6 C-1.043 4.334 -1.041 2.666 -1 1 C-0.67 0.67 -0.34 0.34 0 0 Z M0 6 C1.945 8.918 2.453 10.625 3 14 C0.376 10.939 0 10.268 0 6 Z M-2 14 C-1.34 15.32 -0.68 16.64 0 18 C-0.66 17.67 -1.32 17.34 -2 17 C-2 16.01 -2 15.02 -2 14 Z M0 18 C2.401 20.881 4.473 23.564 6 27 C0.429 21.857 0.429 21.857 0 18 Z M5 18 C5.99 18.495 5.99 18.495 7 19 C6.67 19.66 6.34 20.32 6 21 C5.67 20.01 5.34 19.02 5 18 Z M7 21 C7.99 21.495 7.99 21.495 9 22 C8.67 22.66 8.34 23.32 8 24 C7.67 23.01 7.34 22.02 7 21 Z M10 25 C11.485 25.99 11.485 25.99 13 27 C12.67 27.66 12.34 28.32 12 29 C11.34 27.68 10.68 26.36 10 25 Z M6 27 C7.129 27.933 8.253 28.871 9.375 29.812 C10.001 30.335 10.628 30.857 11.273 31.395 C13 33 13 33 15 36 C11.181 34.444 8.74 32.044 6 29 C6 28.34 6 27.68 6 27 Z M14 30 C15.129 30.933 16.253 31.871 17.375 32.812 C18.001 33.335 18.628 33.857 19.273 34.395 C21 36 21 36 23 39 C19.181 37.444 16.74 35.044 14 32 C14 31.34 14 30.68 14 30 Z M16 37 C17.98 37.99 17.98 37.99 20 39 C19.01 39 18.02 39 17 39 C16.67 38.34 16.34 37.68 16 37 Z M23 39 C26.24 40.504 29.036 42.359 31.938 44.438 C35.216 46.783 38.52 48.964 42 51 C41.01 51.495 41.01 51.495 40 52 C34.827 50.252 27.647 47.717 24.75 42.938 C24.379 41.978 24.379 41.978 24 41 C23.67 40.34 23.34 39.68 23 39 Z M20 40 C20.99 40.33 21.98 40.66 23 41 C22.01 41 21.02 41 20 41 C20 40.67 20 40.34 20 40 Z M23 42 C23.99 42.33 24.98 42.66 26 43 C25.01 43 24.02 43 23 43 C23 42.67 23 42.34 23 42 Z " fill="#0C0203" transform="translate(274,212)"/>
<path d="M0 0 C0.66 0.66 1.32 1.32 2 2 C1.34 2 0.68 2 0 2 C0 1.34 0 0.68 0 0 Z M2 2 C2.99 2.33 3.98 2.66 5 3 C5.054 4.458 5.093 5.916 5.125 7.375 C5.148 8.187 5.171 8.999 5.195 9.836 C5 12 5 12 3 14 C3.012 13.301 3.023 12.603 3.035 11.883 C3.044 10.973 3.053 10.063 3.062 9.125 C3.074 8.22 3.086 7.315 3.098 6.383 C3.162 3.983 3.162 3.983 2 2 Z M2 14 C2.33 14.99 2.66 15.98 3 17 C1.562 19.688 1.562 19.688 0 22 C-0.33 21.34 -0.66 20.68 -1 20 C-0.066 17.969 0.932 15.965 2 14 Z M-2 22 C-2 25 -2 25 -2 25 Z M3 23 C3 23.99 3 24.98 3 26 C2.01 26.495 2.01 26.495 1 27 C1.66 25.68 2.32 24.36 3 23 Z M-4 25 C-4 25.99 -4 26.98 -4 28 C-4.99 28.495 -4.99 28.495 -6 29 C-5.34 27.68 -4.68 26.36 -4 25 Z M0 27 C0 27.99 0 28.98 0 30 C-0.99 30.495 -0.99 30.495 -2 31 C-1.34 29.68 -0.68 28.36 0 27 Z M-7 29 C-7 32 -7 32 -9.406 34.699 C-10.43 35.703 -11.462 36.699 -12.5 37.688 C-13.025 38.199 -13.549 38.71 -14.09 39.236 C-15.387 40.498 -16.692 41.75 -18 43 C-18.66 42.67 -19.32 42.34 -20 42 C-15.71 37.71 -11.42 33.42 -7 29 Z M-4 32 C-4 32.99 -4 33.98 -4 35 C-4.99 35 -5.98 35 -7 35 C-6.01 34.01 -5.02 33.02 -4 32 Z M-11 38 C-10.34 38.33 -9.68 38.66 -9 39 C-10.98 39.99 -10.98 39.99 -13 41 C-12.34 40.01 -11.68 39.02 -11 38 Z M-15 41 C-14.34 41.33 -13.68 41.66 -13 42 C-14.32 42.99 -15.64 43.98 -17 45 C-17.66 44.67 -18.32 44.34 -19 44 C-17.68 43.01 -16.36 42.02 -15 41 Z M-23 44 C-22.34 44.33 -21.68 44.66 -21 45 C-22.748 49.242 -24.801 50.249 -28.824 52.117 C-31.842 53.341 -34.842 54.21 -38 55 C-35.465 52.189 -32.581 50.363 -29.375 48.375 C-26.009 46.422 -26.009 46.422 -23 44 Z M-21 45 C-20.34 45.33 -19.68 45.66 -19 46 C-19.99 46 -20.98 46 -22 46 C-21.67 45.67 -21.34 45.34 -21 45 Z " fill="#100305" transform="translate(243,210)"/>
<path d="M0 0 C0.66 0.66 1.32 1.32 2 2 C1.35 2.41 0.701 2.82 0.031 3.242 C-0.804 3.781 -1.639 4.32 -2.5 4.875 C-3.335 5.409 -4.171 5.942 -5.031 6.492 C-5.681 6.99 -6.331 7.487 -7 8 C-7 8.66 -7 9.32 -7 10 C-14.227 13.114 -20.751 15.526 -28.66 15.859 C-30.899 15.994 -32.849 16.384 -35 17 C-35.66 15.68 -36.32 14.36 -37 13 C-35.719 12.709 -34.437 12.417 -33.117 12.117 C-21.588 9.415 -9.985 6.657 0 0 Z " fill="#F56894" transform="translate(461,301)"/>
<path d="M0 0 C2.176 2.849 4.209 5.761 6.188 8.75 C6.717 9.549 7.247 10.348 7.793 11.172 C8.191 11.775 8.59 12.378 9 13 C8.67 13.66 8.34 14.32 8 15 C7.01 13.68 6.02 12.36 5 11 C6.63 17.011 8.271 23.017 10 29 C2.47 22.831 1.118 9.11 0 0 Z M10 17 C13.297 18.099 14.047 18.946 16.188 21.562 C16.717 22.203 17.247 22.844 17.793 23.504 C18.191 23.998 18.59 24.491 19 25 C18.67 25.66 18.34 26.32 18 27 C16.664 25.524 15.331 24.044 14 22.562 C13.257 21.739 12.515 20.915 11.75 20.066 C10 18 10 18 10 17 Z M19 27 C22.757 28.628 25.617 31.014 28.75 33.625 C30.227 34.851 30.227 34.851 31.734 36.102 C32.856 37.041 32.856 37.041 34 38 C33.67 38.66 33.34 39.32 33 40 C30.851 38.212 28.705 36.42 26.562 34.625 C25.951 34.117 25.339 33.609 24.709 33.086 C20.113 29.227 20.113 29.227 19 27 Z M34 40 C36 41 36 41 36 41 Z M36 41 C40.798 42.621 44.667 45.293 48.812 48.125 C49.505 48.593 50.198 49.061 50.912 49.543 C52.611 50.691 54.306 51.845 56 53 C55.01 53.495 55.01 53.495 54 54 C52.336 53.243 52.336 53.243 50.375 52.016 C49.315 51.354 49.315 51.354 48.234 50.68 C47.497 50.208 46.76 49.736 46 49.25 C45.263 48.794 44.525 48.337 43.766 47.867 C38.261 44.392 38.261 44.392 36 41 Z M56 54 C59.958 54.565 62.666 55.809 66 58 C65.01 58.495 65.01 58.495 64 59 C62.055 58.223 62.055 58.223 59.875 57.062 C59.151 56.682 58.426 56.302 57.68 55.91 C57.125 55.61 56.571 55.309 56 55 C56 54.67 56 54.34 56 54 Z " fill="#F34C91" transform="translate(270,243)"/>
<path d="M0 0 C-2.64 5.28 -5.28 10.56 -8 16 C-11 15 -11 15 -12.824 11.621 C-13.456 10.231 -14.077 8.837 -14.688 7.438 C-15.008 6.727 -15.328 6.016 -15.658 5.283 C-16.448 3.526 -17.225 1.764 -18 0 C-15.563 -0.195 -13.126 -0.381 -10.688 -0.562 C-9.997 -0.619 -9.307 -0.675 -8.596 -0.732 C-5.375 -0.966 -3.097 -1.032 0 0 Z " fill="#FD306E" transform="translate(269,409)"/>
<path d="M0 0 C4.056 0.468 7.466 0.88 11 3 C9 4 9 4 6.836 3.441 C6.024 3.151 5.212 2.861 4.375 2.562 C3.558 2.275 2.74 1.988 1.898 1.691 C1.272 1.463 0.645 1.235 0 1 C0 0.67 0 0.34 0 0 Z M11 4 C14 5 14 5 14 5 Z M14 5 C17.76 5.581 20.53 6.652 23.812 8.562 C24.603 9.018 25.393 9.473 26.207 9.941 C26.799 10.291 27.39 10.64 28 11 C27.01 11.495 27.01 11.495 26 12 C23.18 10.785 23.18 10.785 19.875 9.062 C18.779 8.497 17.684 7.931 16.555 7.348 C15.712 6.903 14.869 6.458 14 6 C14 5.67 14 5.34 14 5 Z M28 12 C32.875 13.75 32.875 13.75 34 16 C29.125 14.25 29.125 14.25 28 12 Z M34 16 C34.99 16.33 35.98 16.66 37 17 C36.01 17 35.02 17 34 17 C34 16.67 34 16.34 34 16 Z M38 19 C39.98 19.99 39.98 19.99 42 21 C41.01 21 40.02 21 39 21 C38.67 20.34 38.34 19.68 38 19 Z M30 20 C35.196 21.599 40.066 23.741 45 26 C44.67 25.34 44.34 24.68 44 24 C47.21 25.382 49.049 26.924 51.25 29.625 C51.771 30.257 52.292 30.888 52.828 31.539 C53.408 32.262 53.408 32.262 54 33 C50.668 31.717 47.509 30.29 44.355 28.617 C43.514 28.172 42.673 27.728 41.807 27.27 C40.942 26.809 40.078 26.349 39.188 25.875 C38.304 25.407 37.42 24.939 36.51 24.457 C34.339 23.307 32.169 22.155 30 21 C30 20.67 30 20.34 30 20 Z " fill="#F28FBA" transform="translate(202,176)"/>
<path d="M0 0 C0.33 0.66 0.66 1.32 1 2 C0.227 3.924 0.227 3.924 -1.02 6.246 C-1.465 7.083 -1.91 7.921 -2.369 8.783 C-2.845 9.659 -3.322 10.535 -3.812 11.438 C-4.277 12.31 -4.742 13.182 -5.221 14.08 C-7.044 17.484 -8.856 20.784 -11 24 C-11.66 23.67 -12.32 23.34 -13 23 C-11.02 19.7 -9.04 16.4 -7 13 C-7.66 13 -8.32 13 -9 13 C-7.759 9.277 -5.759 7.759 -3 5 C-1.947 3.366 -0.927 1.708 0 0 Z M-15 26 C-15 26.99 -15 27.98 -15 29 C-17 30.688 -17 30.688 -19 32 C-17.848 29.532 -16.952 27.952 -15 26 Z M-21 33 C-21 36 -21 36 -23 38.188 C-23.66 38.786 -24.32 39.384 -25 40 C-25.66 39.67 -26.32 39.34 -27 39 C-25.02 37.02 -23.04 35.04 -21 33 Z M-29 40 C-28.34 40.33 -27.68 40.66 -27 41 C-27.99 41 -28.98 41 -30 41 C-29.67 40.67 -29.34 40.34 -29 40 Z M-31 42 C-31 42.99 -31 43.98 -31 45 C-32.32 45.33 -33.64 45.66 -35 46 C-33.68 44.68 -32.36 43.36 -31 42 Z M-36 46 C-35.67 46.66 -35.34 47.32 -35 48 C-35.99 47.67 -36.98 47.34 -38 47 C-37.34 46.67 -36.68 46.34 -36 46 Z M-38 48 C-38 48.66 -38 49.32 -38 50 C-45.286 53.429 -45.286 53.429 -50 53 C-48.667 52.333 -47.333 51.667 -46 51 C-44.969 50.464 -43.938 49.928 -42.875 49.375 C-40 48 -40 48 -38 48 Z " fill="#E9478C" transform="translate(314,349)"/>
<path d="M0 0 C5.755 5.481 5.755 5.481 6.367 9.277 C9.573 23.072 26.557 38.735 38.145 45.961 C40.736 47.378 43.334 48.731 46 50 C43 51 43 51 40.871 50.102 C34.209 46.06 28.621 41.379 23 36 C22.322 35.397 21.644 34.793 20.945 34.172 C11.74 25.669 4.212 13.772 0 2 C0 1.34 0 0.68 0 0 Z " fill="#EF4A88" transform="translate(204,350)"/>
<path d="M0 0 C-1.75 10.034 -5.164 18.163 -10 27 C-10.99 27 -11.98 27 -13 27 C-12.625 26.452 -12.25 25.904 -11.863 25.34 C-7.031 17.854 -4.618 10.47 -2 2 C-11.57 2 -21.14 2 -31 2 C-31 1.67 -31 1.34 -31 1 C-26.907 0.857 -22.813 0.715 -18.72 0.573 C-17.327 0.524 -15.934 0.476 -14.541 0.427 C-12.54 0.357 -10.54 0.288 -8.539 0.219 C-6.732 0.156 -6.732 0.156 -4.889 0.092 C-3.26 0.04 -1.63 0 0 0 Z M-14 28 C-14 31 -14 31 -16.062 33.125 C-19.452 35.288 -22.028 35.688 -26 36 C-25.464 35.752 -24.928 35.505 -24.375 35.25 C-20.577 33.251 -17.041 31.041 -14 28 Z " fill="#F64C96" transform="translate(418,315)"/>
<path d="M0 0 C1.875 1.625 1.875 1.625 3 3 C-1 3 -1 3 -3.938 2.375 C-7.329 1.96 -8.985 2.493 -12 4 C-11.051 1.628 -10.275 0.216 -8.25 -1.375 C-4.96 -2.289 -3.066 -1.37 0 0 Z M-15 3 C-14.01 3.33 -13.02 3.66 -12 4 C-13.188 5.5 -13.188 5.5 -15 7 C-17.688 7.188 -17.688 7.188 -20 7 C-18.366 5.292 -17.131 4.065 -15 3 Z M3 3 C5.02 3.602 7.021 4.273 9 5 C9.33 5.66 9.66 6.32 10 7 C7.98 6.398 5.979 5.727 4 5 C3.67 4.34 3.34 3.68 3 3 Z M10 7 C13.775 8.091 16.47 8.908 19 12 C15.517 11.355 12.938 9.959 10 8 C10 7.67 10 7.34 10 7 Z " fill="#F6517C" transform="translate(185,12)"/>
<path d="M0 0 C3.937 1.312 6.227 2.919 9 6 C4.25 4.125 4.25 4.125 2 3 C1.67 3.99 1.34 4.98 1 6 C0.34 6 -0.32 6 -1 6 C-1.043 4.334 -1.041 2.666 -1 1 C-0.67 0.67 -0.34 0.34 0 0 Z M9 6 C9.99 6.33 10.98 6.66 12 7 C11.01 7 10.02 7 9 7 C9 6.67 9 6.34 9 6 Z M12 8 C14.475 8.99 14.475 8.99 17 10 C16.67 10.66 16.34 11.32 16 12 C14.68 10.68 13.36 9.36 12 8 Z M17 12 C18.98 12.99 18.98 12.99 21 14 C20.67 14.66 20.34 15.32 20 16 C19.01 14.68 18.02 13.36 17 12 Z M23 18 C23.66 18 24.32 18 25 18 C25.66 19.65 26.32 21.3 27 23 C25.646 21.688 24.313 20.354 23 19 C23 18.67 23 18.34 23 18 Z M38 21 C36 23 36 23 32.875 23.125 C31.452 23.063 31.452 23.063 30 23 C33.228 20.848 34.284 20.799 38 21 Z M38 22 C40 23 40 23 40 23 Z M27 23 C30 24 30 24 30 24 Z " fill="#140406" transform="translate(222,89)"/>
<path d="M0 0 C2 1 2 1 2 1 Z M-2 1 C0 2 0 2 0 2 Z M-4 2 C-3.34 2.33 -2.68 2.66 -2 3 C-4.882 4.711 -7.783 6.39 -10.688 8.062 C-11.504 8.548 -12.321 9.033 -13.162 9.533 C-13.958 9.988 -14.754 10.442 -15.574 10.91 C-16.302 11.334 -17.03 11.759 -17.78 12.196 C-20.597 13.216 -22.161 12.854 -25 12 C-27.676 10.59 -27.676 10.59 -30.312 8.938 C-31.196 8.39 -32.079 7.842 -32.988 7.277 C-33.984 6.645 -33.984 6.645 -35 6 C-34.34 5.67 -33.68 5.34 -33 5 C-30.702 6.192 -28.568 7.576 -26.387 8.969 C-23.352 10.28 -22.122 10.017 -19 9 C-16.932 8.055 -14.891 7.051 -12.875 6 C-9.909 4.462 -7.17 3.057 -4 2 Z " fill="#F54A76" transform="translate(201,483)"/>
<path d="M0 0 C3.3 0.33 6.6 0.66 10 1 C10 1.33 10 1.66 10 2 C7.69 1.67 5.38 1.34 3 1 C2.67 1.66 2.34 2.32 2 3 C1.34 2.01 0.68 1.02 0 0 Z M18 0 C15.36 5.28 12.72 10.56 10 16 C7 15 7 15 5.797 13.039 C5.451 12.242 5.106 11.446 4.75 10.625 C4.394 9.834 4.038 9.042 3.672 8.227 C3 6 3 6 4 3 C4.672 4.289 5.337 5.581 6 6.875 C6.371 7.594 6.743 8.314 7.125 9.055 C8 11 8 11 8 13 C8.66 13 9.32 13 10 13 C10.268 11.948 10.536 10.896 10.812 9.812 C11.868 6.425 13.047 3.929 15 1 C13.35 1 11.7 1 10 1 C10 0.67 10 0.34 10 0 C13.287 -0.8 14.71 -1.097 18 0 Z " fill="#EF468B" transform="translate(251,409)"/>
<path d="M0 0 C0 3.889 -1.197 4.765 -3.75 7.625 C-4.446 8.422 -5.142 9.218 -5.859 10.039 C-8.08 12.074 -9.174 12.349 -12 13 C-12.33 13.99 -12.66 14.98 -13 16 C-14 17 -15 18 -16 19 C-16.33 19.99 -16.66 20.98 -17 22 C-17.66 22 -18.32 22 -19 22 C-19.66 23.32 -20.32 24.64 -21 26 C-20.049 17.914 -13.562 11.562 -8 6 C-6 4.667 -4 3.333 -2 2 C-1.34 1.34 -0.68 0.68 0 0 Z " fill="#F95784" transform="translate(294,393)"/>
<path d="M0 0 C4.043 1.485 7.611 3.429 11.312 5.625 C12.381 6.257 13.45 6.888 14.551 7.539 C15.763 8.262 15.763 8.262 17 9 C16.01 9.495 16.01 9.495 15 10 C12.617 9.004 12.617 9.004 9.875 7.562 C8.965 7.089 8.055 6.616 7.117 6.129 C6.419 5.756 5.72 5.384 5 5 C5.278 5.928 5.278 5.928 5.562 6.875 C6 9 6 9 5 11 C2.699 7.444 1.225 4.053 0 0 Z M17 10 C20 11 20 11 20 11 Z M6 11 C6.598 11.763 7.196 12.526 7.812 13.312 C9.47 15.348 11.103 17.198 13 19 C12.67 19.66 12.34 20.32 12 21 C10.991 19.904 9.993 18.798 9 17.688 C8.165 16.765 8.165 16.765 7.312 15.824 C6 14 6 14 6 11 Z M20 11 C22 12 22 12 22 12 Z " fill="#ED4A8D" transform="translate(205,341)"/>
<path d="M0 0 C1.218 3.655 0.646 4.778 -0.582 8.367 C-0.937 9.418 -1.292 10.468 -1.658 11.551 C-2.039 12.648 -2.42 13.745 -2.812 14.875 C-3.182 15.964 -3.551 17.054 -3.932 18.176 C-5.519 22.831 -7.142 27.445 -9 32 C-9.66 32 -10.32 32 -11 32 C-10.727 31.199 -10.727 31.199 -10.449 30.383 C-8.506 24.624 -6.716 18.83 -5 13 C-5.33 13.66 -5.66 14.32 -6 15 C-6.66 14.67 -7.32 14.34 -8 14 C-5.36 9.38 -2.72 4.76 0 0 Z " fill="#F14A8D" transform="translate(252,241)"/>
<path d="M0 0 C0.33 0.66 0.66 1.32 1 2 C0.01 3.32 -0.98 4.64 -2 6 C-1.125 1.125 -1.125 1.125 0 0 Z M-2 9 C-1.67 9.66 -1.34 10.32 -1 11 C-3.981 16.128 -7.034 18.753 -12 22 C-10.499 18.883 -8.938 15.869 -7 13 C-6.01 12.67 -5.02 12.34 -4 12 C-3.34 11.01 -2.68 10.02 -2 9 Z M-5 10 C-5 13 -5 13 -5 13 Z " fill="#150407" transform="translate(314,341)"/>
<path d="M0 0 C0.66 0.33 1.32 0.66 2 1 C2.67 3.13 2.67 3.13 3.254 5.918 C3.469 6.925 3.683 7.933 3.904 8.971 C4.122 10.032 4.339 11.094 4.562 12.188 C4.784 13.23 5.005 14.272 5.232 15.346 C6.257 20.216 7.244 25.08 8 30 C5.83 27.83 5.415 26.667 4.527 23.789 C4.268 22.956 4.008 22.124 3.74 21.266 C3.475 20.394 3.21 19.523 2.938 18.625 C2.534 17.329 2.534 17.329 2.123 16.008 C-1.265 5.059 -1.265 5.059 0 0 Z " fill="#EE81AC" transform="translate(260,235)"/>
<path d="M0 0 C2 1 2 1 2 1 Z M0 2 C-0.33 2.99 -0.66 3.98 -1 5 C-3.65 6.233 -6.195 7.274 -8.938 8.25 C-9.679 8.531 -10.421 8.812 -11.186 9.102 C-13.1 9.803 -15.049 10.409 -17 11 C-17.66 10.67 -18.32 10.34 -19 10 C-3.816 0.728 -3.816 0.728 0 2 Z " fill="#1C060A" transform="translate(108,194)"/>
<path d="M0 0 C4.615 1.319 8.099 3.214 12 6 C11.01 6.495 11.01 6.495 10 7 C7.617 5.82 7.617 5.82 4.875 4.125 C3.965 3.571 3.055 3.016 2.117 2.445 C1.419 1.968 0.72 1.491 0 1 C0 0.67 0 0.34 0 0 Z M12 7 C14 8 14 8 14 8 Z M14 8 C17.735 8.498 19.812 8.875 23 11 C23 11.66 23 12.32 23 13 C25.475 13.99 25.475 13.99 28 15 C27.01 15.495 27.01 15.495 26 16 C23.434 14.855 23.434 14.855 20.438 13.188 C18.951 12.373 18.951 12.373 17.434 11.543 C15 10 15 10 14 8 Z " fill="#F64875" transform="translate(115,459)"/>
<path d="M0 0 C2 1 2 1 2 1 Z M-2 1 C-1.34 1.33 -0.68 1.66 0 2 C-1.65 2.66 -3.3 3.32 -5 4 C-4.01 3.01 -3.02 2.02 -2 1 Z M-7 4 C-6.34 4.33 -5.68 4.66 -5 5 C-6.65 5.66 -8.3 6.32 -10 7 C-9.01 6.01 -8.02 5.02 -7 4 Z M-12 7 C-11.34 7.33 -10.68 7.66 -10 8 C-11.98 8.99 -11.98 8.99 -14 10 C-13.34 9.01 -12.68 8.02 -12 7 Z M-17 11 C-16.34 11.33 -15.68 11.66 -15 12 C-16.98 12.99 -16.98 12.99 -19 14 C-18.34 13.01 -17.68 12.02 -17 11 Z M-20 14 C-19.67 14.66 -19.34 15.32 -19 16 C-19.66 15.67 -20.32 15.34 -21 15 C-20.67 14.67 -20.34 14.34 -20 14 Z M-23 20 C-23 20.66 -23 21.32 -23 22 C-25.375 23.688 -25.375 23.688 -28 25 C-28.66 24.67 -29.32 24.34 -30 24 C-26.375 20 -26.375 20 -23 20 Z " fill="#F78EBC" transform="translate(296,184)"/>
<path d="M0 0 C0.99 0.495 0.99 0.495 2 1 C1.67 1.99 1.34 2.98 1 4 C0.67 2.68 0.34 1.36 0 0 Z M1 7 C1.99 7.495 1.99 7.495 3 8 C2.67 8.66 2.34 9.32 2 10 C1.67 9.01 1.34 8.02 1 7 Z M4 8 C4.99 8.495 4.99 8.495 6 9 C5.67 9.66 5.34 10.32 5 11 C4.67 10.01 4.34 9.02 4 8 Z M3 10 C7.419 11.35 9.343 13.261 12 17 C11.67 17.66 11.34 18.32 11 19 C9.661 17.882 8.329 16.755 7 15.625 C5.886 14.685 5.886 14.685 4.75 13.727 C4.173 13.157 3.595 12.587 3 12 C3 11.34 3 10.68 3 10 Z " fill="#120305" transform="translate(205,344)"/>
<path d="M0 0 C0.461 0.364 0.923 0.727 1.398 1.102 C6.692 5.181 12.217 8.658 18 12 C17.01 12.495 17.01 12.495 16 13 C12.879 11.945 9.958 10.443 7 9 C6.031 8.546 5.061 8.092 4.062 7.625 C1.308 5.454 0.818 3.345 0 0 Z M0 3 C0.66 3.66 1.32 4.32 2 5 C1.34 5 0.68 5 0 5 C0 4.34 0 3.68 0 3 Z " fill="#1A0509" transform="translate(298,251)"/>
<path d="M0 0 C4.538 1.349 8.319 3.192 12.375 5.625 C13.435 6.257 14.494 6.888 15.586 7.539 C16.383 8.021 17.179 8.503 18 9 C16 10 16 10 12.34 8.855 C10.869 8.308 9.402 7.751 7.938 7.188 C7.192 6.914 6.446 6.64 5.678 6.357 C0.128 4.255 0.128 4.255 -1 2 C-0.67 1.34 -0.34 0.68 0 0 Z " fill="#2A0A10" transform="translate(412,194)"/>
<path d="M0 0 C3.64 1.82 4.69 6.357 6.367 9.922 C7.972 12.948 9.778 15.403 12 18 C11.34 18.33 10.68 18.66 10 19 C9.34 18.01 8.68 17.02 8 16 C7.34 16.66 6.68 17.32 6 18 C4.996 15.376 3.997 12.751 3 10.125 C2.571 9.005 2.571 9.005 2.133 7.863 C0 2.227 0 2.227 0 0 Z " fill="#E54C82" transform="translate(269,223)"/>
<path d="M0 0 C0.99 0.33 1.98 0.66 3 1 C2.65 7.646 1.195 10.837 -3 16 C-3.66 15.67 -4.32 15.34 -5 15 C-3.68 13.02 -2.36 11.04 -1 9 C-1.33 8.34 -1.66 7.68 -2 7 C-1.34 7 -0.68 7 0 7 C0 4.69 0 2.38 0 0 Z " fill="#F15A8E" transform="translate(486,259)"/>
<path d="M0 0 C3.875 1.875 3.875 1.875 5 3 C5.073 5.186 5.084 7.375 5.062 9.562 C5.053 10.76 5.044 11.958 5.035 13.191 C5.024 14.118 5.012 15.045 5 16 C2.793 12.69 2.217 10.18 1.375 6.312 C1.115 5.133 0.854 3.954 0.586 2.738 C0.393 1.835 0.199 0.931 0 0 Z " fill="#F8517E" transform="translate(416,54)"/>
<path d="M0 0 C0.33 0.66 0.66 1.32 1 2 C3.025 2.652 3.025 2.652 5 3 C4.01 3.33 3.02 3.66 2 4 C1.34 8.29 0.68 12.58 0 17 C-0.66 16.67 -1.32 16.34 -2 16 C-1.86 13.52 -1.713 11.041 -1.562 8.562 C-1.523 7.855 -1.484 7.148 -1.443 6.42 C-1.113 1.113 -1.113 1.113 0 0 Z " fill="#F66E95" transform="translate(254,436)"/>
<path d="M0 0 C0.33 0.66 0.66 1.32 1 2 C-0.075 4.443 -1.198 6.768 -2.438 9.125 C-2.776 9.784 -3.114 10.442 -3.463 11.121 C-4.301 12.751 -5.15 14.376 -6 16 C-6.66 15.67 -7.32 15.34 -8 15 C-8 10 -8 10 -5.688 7.625 C-4.801 6.759 -3.914 5.892 -3 5 C-1.947 3.366 -0.927 1.708 0 0 Z " fill="#F54D8D" transform="translate(314,349)"/>
<path d="M0 0 C1.305 3.916 0.322 5.039 -1.438 8.688 C-1.911 9.681 -2.384 10.675 -2.871 11.699 C-3.244 12.458 -3.616 13.218 -4 14 C-5.32 13.67 -6.64 13.34 -8 13 C-7.506 12.229 -7.013 11.458 -6.504 10.664 C-5.863 9.661 -5.223 8.658 -4.562 7.625 C-3.924 6.627 -3.286 5.63 -2.629 4.602 C-1.031 2.142 -1.031 2.142 0 0 Z " fill="#E7477E" transform="translate(251,226)"/>
<path d="M0 0 C0 3 0 3 -1.531 4.605 C-2.181 5.128 -2.831 5.65 -3.5 6.188 C-4.15 6.717 -4.799 7.247 -5.469 7.793 C-5.974 8.191 -6.479 8.59 -7 9 C-5.65 4.581 -3.739 2.657 0 0 Z " fill="#FA85B4" transform="translate(283,401)"/>
<path d="M0 0 C3.3 0.33 6.6 0.66 10 1 C10 1.33 10 1.66 10 2 C7.69 1.67 5.38 1.34 3 1 C2.67 1.66 2.34 2.32 2 3 C1.34 2.01 0.68 1.02 0 0 Z M18 0 C17.67 0.66 17.34 1.32 17 2 C14.69 1.67 12.38 1.34 10 1 C10 0.67 10 0.34 10 0 C13.287 -0.8 14.71 -1.097 18 0 Z " fill="#F75392" transform="translate(251,409)"/>
<path d="M0 0 C0.99 0.495 0.99 0.495 2 1 C1.01 1.495 1.01 1.495 0 2 C0 1.34 0 0.68 0 0 Z M-2 2 C-0.35 2.33 1.3 2.66 3 3 C0.688 5.062 0.688 5.062 -2 7 C-2.99 6.67 -3.98 6.34 -5 6 C-4.01 4.68 -3.02 3.36 -2 2 Z M3 2 C5 3 5 3 5 3 Z " fill="#F676A0" transform="translate(277,198)"/>
<path d="M0 0 C2 1 2 1 2 1 Z M0 1 C-0.33 1.99 -0.66 2.98 -1 4 C-4.062 5.188 -4.062 5.188 -7 6 C-6 3 -6 3 -4.062 1.812 C-2 1 -2 1 0 1 Z M-10 4 C-9.34 4.66 -8.68 5.32 -8 6 C-8.66 6.66 -9.32 7.32 -10 8 C-10 6.68 -10 5.36 -10 4 Z M-9 8 C-8.01 8.495 -8.01 8.495 -7 9 C-7.99 9.495 -7.99 9.495 -9 10 C-9 9.34 -9 8.68 -9 8 Z " fill="#F95F89" transform="translate(108,50)"/>
<path d="M0 0 C0.99 0.33 1.98 0.66 3 1 C2.67 1.66 2.34 2.32 2 3 C1.34 3 0.68 3 0 3 C0 2.01 0 1.02 0 0 Z M3 2 C4.65 2.33 6.3 2.66 8 3 C7.67 3.99 7.34 4.98 7 6 C4.525 5.01 4.525 5.01 2 4 C2.33 3.34 2.66 2.68 3 2 Z M7 6 C9 7 9 7 9 7 Z " fill="#F65982" transform="translate(492,195)"/>
<path d="M0 0 C0.99 0.33 1.98 0.66 3 1 C0.826 3.5 -0.73 4.436 -4 5 C-3 2 -3 2 0 0 Z M-6 5 C-5.34 5.33 -4.68 5.66 -4 6 C-4.99 6 -5.98 6 -7 6 C-6.67 5.67 -6.34 5.34 -6 5 Z " fill="#F54B77" transform="translate(410,150)"/>
<path d="M0 0 C4.75 1.875 4.75 1.875 7 3 C6.67 3.66 6.34 4.32 6 5 C4.68 4.34 3.36 3.68 2 3 C1.67 3.99 1.34 4.98 1 6 C0.34 6 -0.32 6 -1 6 C-1.043 4.334 -1.041 2.666 -1 1 C-0.67 0.67 -0.34 0.34 0 0 Z " fill="#26090F" transform="translate(222,89)"/>
<path d="M0 0 C0.66 0.33 1.32 0.66 2 1 C0.35 1.66 -1.3 2.32 -3 3 C-2.01 2.01 -1.02 1.02 0 0 Z M-5 3 C-3 4 -3 4 -3 4 Z M-5 5 C-9.75 8 -9.75 8 -12 8 C-11.67 7.01 -11.34 6.02 -11 5 C-8.425 4.003 -7.511 3.745 -5 5 Z " fill="#F53666" transform="translate(399,462)"/>
<path d="M0 0 C1.98 0.99 1.98 0.99 4 2 C4 4 4 6 4 8 C3.01 7.67 2.02 7.34 1 7 C1.021 6.216 1.041 5.433 1.062 4.625 C1.187 2.019 1.187 2.019 0 0 Z " fill="#DA6987" transform="translate(285,126)"/>
<path d="M0 0 C2.64 0.33 5.28 0.66 8 1 C5.861 3.139 4.867 3.427 2 4 C1.34 2.68 0.68 1.36 0 0 Z " fill="#F45781" transform="translate(424,314)"/>
<path d="M0 0 C3.775 1.091 6.47 1.908 9 5 C7.684 4.745 6.372 4.471 5.062 4.188 C4.332 4.037 3.601 3.886 2.848 3.73 C2.238 3.489 1.628 3.248 1 3 C0.67 2.01 0.34 1.02 0 0 Z M9 5 C11 6 11 6 11 6 Z " fill="#F64573" transform="translate(214,30)"/>
<path d="M0 0 C2 1 2 1 2 1 Z M0 1 C-0.75 2.938 -0.75 2.938 -2 5 C-4.125 5.75 -4.125 5.75 -6 6 C-3.742 1 -3.742 1 0 1 Z " fill="#F4557E" transform="translate(18,200)"/>
<path d="M0 0 C2.97 0.495 2.97 0.495 6 1 C5.67 1.99 5.34 2.98 5 4 C3.315 3.031 1.648 2.03 0 1 C0 0.67 0 0.34 0 0 Z M6 4 C6.99 4 7.98 4 9 4 C8.67 4.66 8.34 5.32 8 6 C7.34 5.34 6.68 4.68 6 4 Z " fill="#F65E87" transform="translate(223,36)"/>
<path d="M0 0 C1.98 1.65 3.96 3.3 6 5 C2.894 5 1.647 4.461 -1 3 C-0.67 2.01 -0.34 1.02 0 0 Z " fill="#EE82A9" transform="translate(250,203)"/>
<path d="M0 0 C5.75 0.875 5.75 0.875 8 2 C7.67 2.66 7.34 3.32 7 4 C4.98 3.398 2.979 2.727 1 2 C0.67 1.34 0.34 0.68 0 0 Z " fill="#F6527D" transform="translate(143,475)"/>
<path d="M0 0 C0.66 0.33 1.32 0.66 2 1 C1.34 3.64 0.68 6.28 0 9 C-0.66 8.67 -1.32 8.34 -2 8 C-1.125 1.125 -1.125 1.125 0 0 Z " fill="#FA4992" transform="translate(248,251)"/>
<path d="M0 0 C1.98 0.99 3.96 1.98 6 3 C4.188 3.688 4.188 3.688 2 4 C0.25 2.562 0.25 2.562 -1 1 C-0.67 0.67 -0.34 0.34 0 0 Z " fill="#F7527F" transform="translate(401,45)"/>
<path d="M0 0 C0.66 0.33 1.32 0.66 2 1 C0.188 2.562 0.188 2.562 -2 4 C-2.99 3.67 -3.98 3.34 -5 3 C-2.625 1.438 -2.625 1.438 0 0 Z " fill="#F54874" transform="translate(170,15)"/>
<path d="M0 0 C0.99 0.33 1.98 0.66 3 1 C3.33 2.65 3.66 4.3 4 6 C3.34 6 2.68 6 2 6 C1.34 4.02 0.68 2.04 0 0 Z " fill="#FB4D8D" transform="translate(205,341)"/>
<path d="M0 0 C2 1 2 1 2 1 Z M0 1 C-0.33 1.99 -0.66 2.98 -1 4 C-2.32 3.67 -3.64 3.34 -5 3 C-2 1 -2 1 0 1 Z " fill="#F54572" transform="translate(108,50)"/>
<path d="M0 0 C1.65 0 3.3 0 5 0 C1.25 3 1.25 3 -1 3 C-0.67 2.01 -0.34 1.02 0 0 Z " fill="#F74877" transform="translate(388,467)"/>
<path d="M0 0 C0.99 0.99 1.98 1.98 3 3 C2.34 3.66 1.68 4.32 1 5 C0.67 3.35 0.34 1.7 0 0 Z " fill="#FE7BA8" transform="translate(259,243)"/>
<path d="M0 0 C0.99 0 1.98 0 3 0 C2.67 0.99 2.34 1.98 2 3 C1.34 2.67 0.68 2.34 0 2 C0 1.34 0 0.68 0 0 Z " fill="#E73D7E" transform="translate(272,250)"/>
<path d="M0 0 C0.99 0.33 1.98 0.66 3 1 C2.34 1.66 1.68 2.32 1 3 C0.67 2.01 0.34 1.02 0 0 Z " fill="#FC306D" transform="translate(254,410)"/>
<path d="M0 0 C1.485 0.99 1.485 0.99 3 2 C1.68 2 0.36 2 -1 2 C-0.67 1.34 -0.34 0.68 0 0 Z " fill="#F4517A" transform="translate(42,315)"/>
<path d="M0 0 C1.98 0.99 1.98 0.99 4 2 C3.01 2.33 2.02 2.66 1 3 C0.67 2.01 0.34 1.02 0 0 Z " fill="#F74877" transform="translate(361,23)"/>
<path d="M0 0 C0.66 0.33 1.32 0.66 2 1 C2 1.66 2 2.32 2 3 C1.01 2.67 0.02 2.34 -1 2 C-0.67 1.34 -0.34 0.68 0 0 Z " fill="#FA4D88" transform="translate(248,251)"/>
<path d="M0 0 C0.33 0 0.66 0 1 0 C1 1.65 1 3.3 1 5 C0.67 5 0.34 5 0 5 C0 3.35 0 1.7 0 0 Z " fill="#F57296" transform="translate(8,209)"/>
<path d="M0 0 C0.33 0 0.66 0 1 0 C1 1.65 1 3.3 1 5 C0.67 5 0.34 5 0 5 C0 3.35 0 1.7 0 0 Z " fill="#FF6690" transform="translate(288,145)"/>
<path d="M0 0 C2 1 2 1 2 1 Z " fill="#F57296" transform="translate(128,469)"/>
<path d="M0 0 C2 1 2 1 2 1 Z " fill="#F57296" transform="translate(441,159)"/>
<path d="M0 0 C2 1 2 1 2 1 Z " fill="#F57296" transform="translate(110,459)"/>
<path d="" fill="#F57296" transform="translate(0,0)"/>
<path d="" fill="#F57296" transform="translate(0,0)"/>
<path d="" fill="#F57296" transform="translate(0,0)"/>
<path d="" fill="#F57296" transform="translate(0,0)"/>
<path d="" fill="#F57296" transform="translate(0,0)"/>
<path d="M0 0 C2 1 2 1 2 1 Z " fill="#F57296" transform="translate(440,339)"/>
<path d="M0 0 C2 1 2 1 2 1 Z " fill="#F57296" transform="translate(79,340)"/>
<path d="" fill="#F57296" transform="translate(0,0)"/>
<path d="" fill="#FF6690" transform="translate(0,0)"/>
<path d="M0 0 C0.66 0.66 1.32 1.32 2 2 C1.34 2 0.68 2 0 2 C0 1.34 0 0.68 0 0 Z " fill="#F57296" transform="translate(110,155)"/>
<path d="" fill="#FF6690" transform="translate(0,0)"/>
<path d="M0 0 C2 1 2 1 2 1 Z " fill="#F57296" transform="translate(167,491)"/>
<path d="" fill="#F57296" transform="translate(0,0)"/>
<path d="M0 0 C2 1 2 1 2 1 Z " fill="#F57296" transform="translate(323,488)"/>
<path d="" fill="#F57296" transform="translate(0,0)"/>
<path d="" fill="#F57296" transform="translate(0,0)"/>
<path d="" fill="#F57296" transform="translate(0,0)"/>
<path d="" fill="#F57296" transform="translate(0,0)"/>
<path d="M0 0 C2 1 2 1 2 1 Z " fill="#F57296" transform="translate(261,443)"/>
<path d="" fill="#F57296" transform="translate(0,0)"/>
<path d="" fill="#F57296" transform="translate(0,0)"/>
<path d="M0 0 C2 1 2 1 2 1 Z " fill="#FA6C93" transform="translate(417,353)"/>
<path d="" fill="#E66F8E" transform="translate(0,0)"/>
<path d="" fill="#E66F8E" transform="translate(0,0)"/>
<path d="" fill="#F57296" transform="translate(0,0)"/>
<path d="" fill="#F57296" transform="translate(0,0)"/>
<path d="" fill="#F57296" transform="translate(0,0)"/>
<path d="M0 0 C2 1 2 1 2 1 Z " fill="#F57296" transform="translate(482,187)"/>
<path d="" fill="#F57296" transform="translate(0,0)"/>
<path d="" fill="#F57296" transform="translate(0,0)"/>
<path d="" fill="#F57296" transform="translate(0,0)"/>
<path d="" fill="#FF6690" transform="translate(0,0)"/>
<path d="" fill="#F57296" transform="translate(0,0)"/>
<path d="" fill="#A16372" transform="translate(0,0)"/>
<path d="" fill="#F57296" transform="translate(0,0)"/>
<path d="" fill="#F57296" transform="translate(0,0)"/>
<path d="" fill="#B36679" transform="translate(0,0)"/>
<path d="" fill="#E66F8E" transform="translate(0,0)"/>
<path d="" fill="#F57296" transform="translate(0,0)"/>
<path d="" fill="#F57296" transform="translate(0,0)"/>
<path d="" fill="#F57296" transform="translate(0,0)"/>
<path d="" fill="#F57296" transform="translate(0,0)"/>
<path d="" fill="#B36679" transform="translate(0,0)"/>
<path d="" fill="#F57296" transform="translate(0,0)"/>
<path d="" fill="#F57296" transform="translate(0,0)"/>
<path d="" fill="#F57296" transform="translate(0,0)"/>
<path d="" fill="#8D606A" transform="translate(0,0)"/>
<path d="" fill="#F57296" transform="translate(0,0)"/>
<path d="" fill="#F57296" transform="translate(0,0)"/>
<path d="" fill="#F57296" transform="translate(0,0)"/>
<path d="" fill="#F57296" transform="translate(0,0)"/>
<path d="" fill="#F57296" transform="translate(0,0)"/>
<path d="" fill="#B36679" transform="translate(0,0)"/>
<path d="" fill="#8D606A" transform="translate(0,0)"/>
<path d="" fill="#F57296" transform="translate(0,0)"/>
<path d="" fill="#F57296" transform="translate(0,0)"/>
<path d="" fill="#C46A80" transform="translate(0,0)"/>
<path d="" fill="#F57296" transform="translate(0,0)"/>
<path d="" fill="#F57296" transform="translate(0,0)"/>
<path d="" fill="#A16372" transform="translate(0,0)"/>
<path d="" fill="#F57296" transform="translate(0,0)"/>
<path d="" fill="#F57296" transform="translate(0,0)"/>
<path d="" fill="#F57296" transform="translate(0,0)"/>
<path d="" fill="#F57296" transform="translate(0,0)"/>
<path d="" fill="#C46A80" transform="translate(0,0)"/>
<path d="" fill="#A16372" transform="translate(0,0)"/>
<path d="" fill="#E66F8E" transform="translate(0,0)"/>
<path d="" fill="#E66F8E" transform="translate(0,0)"/>
<path d="" fill="#D56D87" transform="translate(0,0)"/>
<path d="" fill="#F57296" transform="translate(0,0)"/>
<path d="" fill="#F57296" transform="translate(0,0)"/>
<path d="" fill="#E66F8E" transform="translate(0,0)"/>
<path d="" fill="#F57296" transform="translate(0,0)"/>
<path d="" fill="#E66F8E" transform="translate(0,0)"/>
<path d="" fill="#F57296" transform="translate(0,0)"/>
<path d="" fill="#E66F8E" transform="translate(0,0)"/>
<path d="" fill="#D56D87" transform="translate(0,0)"/>
<path d="" fill="#D56D87" transform="translate(0,0)"/>
<path d="" fill="#E66F8E" transform="translate(0,0)"/>
<path d="" fill="#F57296" transform="translate(0,0)"/>
<path d="" fill="#B36679" transform="translate(0,0)"/>
<path d="" fill="#B36679" transform="translate(0,0)"/>
<path d="" fill="#E66F8E" transform="translate(0,0)"/>
<path d="" fill="#F57296" transform="translate(0,0)"/>
<path d="" fill="#E66F8E" transform="translate(0,0)"/>
<path d="" fill="#E66F8E" transform="translate(0,0)"/>
<path d="" fill="#E66F8E" transform="translate(0,0)"/>
<path d="" fill="#F57296" transform="translate(0,0)"/>
<path d="" fill="#F57296" transform="translate(0,0)"/>
<path d="" fill="#E66F8E" transform="translate(0,0)"/>
<path d="" fill="#F57296" transform="translate(0,0)"/>
<path d="" fill="#F57296" transform="translate(0,0)"/>
<path d="" fill="#F57296" transform="translate(0,0)"/>
<path d="" fill="#F57296" transform="translate(0,0)"/>
<path d="" fill="#FF6690" transform="translate(0,0)"/>
<path d="" fill="#F57296" transform="translate(0,0)"/>
<path d="" fill="#F57296" transform="translate(0,0)"/>
<path d="" fill="#F57296" transform="translate(0,0)"/>
<path d="" fill="#F57296" transform="translate(0,0)"/>
<path d="" fill="#E66F8E" transform="translate(0,0)"/>
<path d="" fill="#F57296" transform="translate(0,0)"/>
<path d="" fill="#F57296" transform="translate(0,0)"/>
<path d="" fill="#F57296" transform="translate(0,0)"/>
<path d="" fill="#F57296" transform="translate(0,0)"/>
<path d="" fill="#F57296" transform="translate(0,0)"/>
<path d="" fill="#F57296" transform="translate(0,0)"/>
<path d="" fill="#F57296" transform="translate(0,0)"/>
<path d="" fill="#F57296" transform="translate(0,0)"/>
<path d="" fill="#F57296" transform="translate(0,0)"/>
<path d="" fill="#F57296" transform="translate(0,0)"/>
<path d="" fill="#F57296" transform="translate(0,0)"/>
<path d="" fill="#F57296" transform="translate(0,0)"/>
<path d="" fill="#F57296" transform="translate(0,0)"/>
<path d="" fill="#F57296" transform="translate(0,0)"/>
<path d="" fill="#FF6690" transform="translate(0,0)"/>
<path d="" fill="#F57296" transform="translate(0,0)"/>
<path d="" fill="#E66F8E" transform="translate(0,0)"/>
<path d="" fill="#E66F8E" transform="translate(0,0)"/>
<path d="" fill="#E66F8E" transform="translate(0,0)"/>
<path d="" fill="#E66F8E" transform="translate(0,0)"/>
<path d="" fill="#D56D87" transform="translate(0,0)"/>
<path d="" fill="#E66F8E" transform="translate(0,0)"/>
<path d="" fill="#F57296" transform="translate(0,0)"/>
<path d="" fill="#F57296" transform="translate(0,0)"/>
<path d="" fill="#F57296" transform="translate(0,0)"/>
<path d="" fill="#FF6690" transform="translate(0,0)"/>
<path d="" fill="#F57296" transform="translate(0,0)"/>
<path d="" fill="#F57296" transform="translate(0,0)"/>
<path d="" fill="#F57296" transform="translate(0,0)"/>
<path d="" fill="#FF6690" transform="translate(0,0)"/>
<path d="" fill="#F57296" transform="translate(0,0)"/>
<path d="" fill="#F57296" transform="translate(0,0)"/>
<path d="" fill="#F57296" transform="translate(0,0)"/>
<path d="" fill="#F57296" transform="translate(0,0)"/>
<path d="" fill="#F57296" transform="translate(0,0)"/>
<path d="" fill="#F57296" transform="translate(0,0)"/>
<path d="" fill="#FF6690" transform="translate(0,0)"/>
<path d="" fill="#FF6690" transform="translate(0,0)"/>
<path d="" fill="#F57296" transform="translate(0,0)"/>
<path d="" fill="#E66F8E" transform="translate(0,0)"/>
<path d="" fill="#F57296" transform="translate(0,0)"/>
<path d="" fill="#F57296" transform="translate(0,0)"/>
<path d="" fill="#B36679" transform="translate(0,0)"/>
<path d="" fill="#F57296" transform="translate(0,0)"/>
<path d="" fill="#E66F8E" transform="translate(0,0)"/>
<path d="" fill="#F57296" transform="translate(0,0)"/>
<path d="" fill="#F57296" transform="translate(0,0)"/>
<path d="" fill="#D56D87" transform="translate(0,0)"/>
<path d="" fill="#E66F8E" transform="translate(0,0)"/>
<path d="" fill="#F57296" transform="translate(0,0)"/>
<path d="" fill="#C46A80" transform="translate(0,0)"/>
<path d="" fill="#F57296" transform="translate(0,0)"/>
<path d="" fill="#F57296" transform="translate(0,0)"/>
<path d="" fill="#F57296" transform="translate(0,0)"/>
<path d="" fill="#F57296" transform="translate(0,0)"/>
<path d="" fill="#F57296" transform="translate(0,0)"/>
<path d="" fill="#F57296" transform="translate(0,0)"/>
<path d="" fill="#F57296" transform="translate(0,0)"/>
<path d="" fill="#F57296" transform="translate(0,0)"/>
<path d="" fill="#E66F8E" transform="translate(0,0)"/>
<path d="" fill="#C46A80" transform="translate(0,0)"/>
<path d="" fill="#B36679" transform="translate(0,0)"/>
<path d="" fill="#F57296" transform="translate(0,0)"/>
<path d="" fill="#F57296" transform="translate(0,0)"/>
<path d="" fill="#E66F8E" transform="translate(0,0)"/>
<path d="" fill="#B36679" transform="translate(0,0)"/>
<path d="" fill="#F57296" transform="translate(0,0)"/>
<path d="" fill="#F57296" transform="translate(0,0)"/>
<path d="" fill="#F57296" transform="translate(0,0)"/>
<path d="" fill="#E66F8E" transform="translate(0,0)"/>
<path d="" fill="#F57296" transform="translate(0,0)"/>
<path d="" fill="#A16372" transform="translate(0,0)"/>
<path d="" fill="#E66F8E" transform="translate(0,0)"/>
<path d="" fill="#E66F8E" transform="translate(0,0)"/>
<path d="" fill="#A16372" transform="translate(0,0)"/>
</svg>